<?xml version="1.0" encoding="UTF-8" standalone="no"?>
<!DOCTYPE svg PUBLIC "-//W3C//DTD SVG 1.1//EN"
 "http://www.w3.org/Graphics/SVG/1.1/DTD/svg11.dtd">
<!-- Generated by graphviz version 2.43.0 (0)
 -->
<!-- Title: graphviz1 Pages: 1 -->
<svg width="418pt" height="202pt"
 viewBox="0.00 0.00 417.50 202.00" xmlns="http://www.w3.org/2000/svg" xmlns:xlink="http://www.w3.org/1999/xlink">
<g id="graph0" class="graph" transform="scale(1 1) rotate(0) translate(4 198)">
<title>graphviz1</title>
<polygon fill="white" stroke="transparent" points="-4,4 -4,-198 413.5,-198 413.5,4 -4,4"/>
<!-- LoginRequiredMixin -->
<g id="node1" class="node">
<title>LoginRequiredMixin</title>
<polygon fill="none" stroke="black" points="297.5,-194 135.5,-194 135.5,-158 297.5,-158 297.5,-194"/>
<text text-anchor="middle" x="216.5" y="-172.3" font-family="Times,serif" font-size="14.00">LoginRequiredMixin</text>
</g>
<!-- BaseView -->
<g id="node4" class="node">
<title>BaseView</title>
<polygon fill="none" stroke="black" points="188.5,-122 102.5,-122 102.5,-86 188.5,-86 188.5,-122"/>
<text text-anchor="middle" x="145.5" y="-100.3" font-family="Times,serif" font-size="14.00">BaseView</text>
</g>
<!-- LoginRequiredMixin&#45;&gt;BaseView -->
<g id="edge1" class="edge">
<title>LoginRequiredMixin&#45;&gt;BaseView</title>
<path fill="none" stroke="black" d="M162,-147.83C162,-147.83 162,-122.41 162,-122.41"/>
<polygon fill="none" stroke="black" points="158.5,-147.83 162,-157.83 165.5,-147.83 158.5,-147.83"/>
</g>
<!-- BaseDetailView -->
<g id="node7" class="node">
<title>BaseDetailView</title>
<polygon fill="none" stroke="black" points="350.5,-122 222.5,-122 222.5,-86 350.5,-86 350.5,-122"/>
<text text-anchor="middle" x="286.5" y="-100.3" font-family="Times,serif" font-size="14.00">BaseDetailView</text>
</g>
<!-- LoginRequiredMixin&#45;&gt;BaseDetailView -->
<g id="edge3" class="edge">
<title>LoginRequiredMixin&#45;&gt;BaseDetailView</title>
<path fill="none" stroke="black" d="M260,-147.83C260,-147.83 260,-122.41 260,-122.41"/>
<polygon fill="none" stroke="black" points="256.5,-147.83 260,-157.83 263.5,-147.83 256.5,-147.83"/>
</g>
<!-- TemplateView -->
<g id="node2" class="node">
<title>TemplateView</title>
<polygon fill="none" stroke="black" points="117,-194 0,-194 0,-158 117,-158 117,-194"/>
<text text-anchor="middle" x="58.5" y="-172.3" font-family="Times,serif" font-size="14.00">TemplateView</text>
</g>
<!-- TemplateView&#45;&gt;BaseView -->
<g id="edge2" class="edge">
<title>TemplateView&#45;&gt;BaseView</title>
<path fill="none" stroke="black" d="M109.75,-147.83C109.75,-147.83 109.75,-122.41 109.75,-122.41"/>
<polygon fill="none" stroke="black" points="106.25,-147.83 109.75,-157.83 113.25,-147.83 106.25,-147.83"/>
</g>
<!-- DetailView -->
<g id="node3" class="node">
<title>DetailView</title>
<polygon fill="none" stroke="black" points="409.5,-194 315.5,-194 315.5,-158 409.5,-158 409.5,-194"/>
<text text-anchor="middle" x="362.5" y="-172.3" font-family="Times,serif" font-size="14.00">DetailView</text>
</g>
<!-- DetailView&#45;&gt;BaseDetailView -->
<g id="edge4" class="edge">
<title>DetailView&#45;&gt;BaseDetailView</title>
<path fill="none" stroke="black" d="M333,-147.83C333,-147.83 333,-122.41 333,-122.41"/>
<polygon fill="none" stroke="black" points="329.5,-147.83 333,-157.83 336.5,-147.83 329.5,-147.83"/>
</g>
<!-- PageView -->
<g id="node5" class="node">
<title>PageView</title>
<polygon fill="none" stroke="black" points="15.5,-26 15.5,-47 138.5,-47 138.5,-26 15.5,-26"/>
<text text-anchor="start" x="42" y="-32.8" font-family="Times,serif" font-size="14.00">PageView</text>
<polygon fill="none" stroke="black" points="15.5,-3 15.5,-24 138.5,-24 138.5,-3 15.5,-3"/>
<text text-anchor="start" x="18.5" y="-9.8" font-family="Times,serif" font-size="14.00">page_title_suffix</text>
<polygon fill="none" stroke="black" points="12,0 12,-50 141,-50 141,0 12,0"/>
</g>
<!-- BaseView&#45;&gt;PageView -->
<g id="edge5" class="edge">
<title>BaseView&#45;&gt;PageView</title>
<path fill="none" stroke="black" d="M121.75,-75.68C121.75,-75.68 121.75,-50.1 121.75,-50.1"/>
<polygon fill="none" stroke="black" points="118.25,-75.68 121.75,-85.68 125.25,-75.68 118.25,-75.68"/>
</g>
<!-- BasePostView -->
<g id="node6" class="node">
<title>BasePostView</title>
<polygon fill="none" stroke="black" points="162.5,-26 162.5,-47 268.5,-47 268.5,-26 162.5,-26"/>
<text text-anchor="start" x="165.5" y="-32.8" font-family="Times,serif" font-size="14.00">BasePostView</text>
<polygon fill="none" stroke="black" points="162.5,-3 162.5,-24 268.5,-24 268.5,-3 162.5,-3"/>
<text text-anchor="start" x="194.5" y="-9.8" font-family="Times,serif" font-size="14.00">post()</text>
<polygon fill="none" stroke="black" points="159.5,0 159.5,-50 271.5,-50 271.5,0 159.5,0"/>
</g>
<!-- BaseView&#45;&gt;BasePostView -->
<g id="edge6" class="edge">
<title>BaseView&#45;&gt;BasePostView</title>
<path fill="none" stroke="black" d="M174,-75.68C174,-75.68 174,-50.1 174,-50.1"/>
<polygon fill="none" stroke="black" points="170.5,-75.68 174,-85.68 177.5,-75.68 170.5,-75.68"/>
</g>
</g>
</svg>
