<svg id="my-svg" width="100%" xmlns="http://www.w3.org/2000/svg" xmlns:xlink="http://www.w3.org/1999/xlink" class="erDiagram" style="max-width: 1800.23px; background-color: white;" viewBox="0 0 1800.2265625 688.25" role="graphics-document document" aria-roledescription="er"><style>#my-svg{font-family:"trebuchet ms",verdana,arial,sans-serif;font-size:16px;fill:#333;}@keyframes edge-animation-frame{from{stroke-dashoffset:0;}}@keyframes dash{to{stroke-dashoffset:0;}}#my-svg .edge-animation-slow{stroke-dasharray:9,5!important;stroke-dashoffset:900;animation:dash 50s linear infinite;stroke-linecap:round;}#my-svg .edge-animation-fast{stroke-dasharray:9,5!important;stroke-dashoffset:900;animation:dash 20s linear infinite;stroke-linecap:round;}#my-svg .error-icon{fill:#552222;}#my-svg .error-text{fill:#552222;stroke:#552222;}#my-svg .edge-thickness-normal{stroke-width:1px;}#my-svg .edge-thickness-thick{stroke-width:3.5px;}#my-svg .edge-pattern-solid{stroke-dasharray:0;}#my-svg .edge-thickness-invisible{stroke-width:0;fill:none;}#my-svg .edge-pattern-dashed{stroke-dasharray:3;}#my-svg .edge-pattern-dotted{stroke-dasharray:2;}#my-svg .marker{fill:#333333;stroke:#333333;}#my-svg .marker.cross{stroke:#333333;}#my-svg svg{font-family:"trebuchet ms",verdana,arial,sans-serif;font-size:16px;}#my-svg p{margin:0;}#my-svg .entityBox{fill:#ECECFF;stroke:#9370DB;}#my-svg .relationshipLabelBox{fill:hsl(80, 100%, 96.2745098039%);opacity:0.7;background-color:hsl(80, 100%, 96.2745098039%);}#my-svg .relationshipLabelBox rect{opacity:0.5;}#my-svg .labelBkg{background-color:rgba(248.6666666666, 255, 235.9999999999, 0.5);}#my-svg .edgeLabel .label{fill:#9370DB;font-size:14px;}#my-svg .label{font-family:"trebuchet ms",verdana,arial,sans-serif;color:#333;}#my-svg .edge-pattern-dashed{stroke-dasharray:8,8;}#my-svg .node rect,#my-svg .node circle,#my-svg .node ellipse,#my-svg .node polygon{fill:#ECECFF;stroke:#9370DB;stroke-width:1px;}#my-svg .relationshipLine{stroke:#333333;stroke-width:1;fill:none;}#my-svg .marker{fill:none!important;stroke:#333333!important;stroke-width:1;}#my-svg .edgeLabel{background-color:rgba(232,232,232, 0.8);}#my-svg .edgeLabel .label rect{fill:rgba(232,232,232, 0.8);}#my-svg .edgeLabel .label text{fill:#333;}#my-svg :root{--mermaid-font-family:"trebuchet ms",verdana,arial,sans-serif;}</style><g><defs><marker id="my-svg_er-onlyOneStart" class="marker onlyOne er" refX="0" refY="9" markerWidth="18" markerHeight="18" orient="auto"><path d="M9,0 L9,18 M15,0 L15,18"/></marker></defs><defs><marker id="my-svg_er-onlyOneEnd" class="marker onlyOne er" refX="18" refY="9" markerWidth="18" markerHeight="18" orient="auto"><path d="M3,0 L3,18 M9,0 L9,18"/></marker></defs><defs><marker id="my-svg_er-zeroOrOneStart" class="marker zeroOrOne er" refX="0" refY="9" markerWidth="30" markerHeight="18" orient="auto"><circle fill="white" cx="21" cy="9" r="6"/><path d="M9,0 L9,18"/></marker></defs><defs><marker id="my-svg_er-zeroOrOneEnd" class="marker zeroOrOne er" refX="30" refY="9" markerWidth="30" markerHeight="18" orient="auto"><circle fill="white" cx="9" cy="9" r="6"/><path d="M21,0 L21,18"/></marker></defs><defs><marker id="my-svg_er-oneOrMoreStart" class="marker oneOrMore er" refX="18" refY="18" markerWidth="45" markerHeight="36" orient="auto"><path d="M0,18 Q 18,0 36,18 Q 18,36 0,18 M42,9 L42,27"/></marker></defs><defs><marker id="my-svg_er-oneOrMoreEnd" class="marker oneOrMore er" refX="27" refY="18" markerWidth="45" markerHeight="36" orient="auto"><path d="M3,9 L3,27 M9,18 Q27,0 45,18 Q27,36 9,18"/></marker></defs><defs><marker id="my-svg_er-zeroOrMoreStart" class="marker zeroOrMore er" refX="18" refY="18" markerWidth="57" markerHeight="36" orient="auto"><circle fill="white" cx="48" cy="18" r="6"/><path d="M0,18 Q18,0 36,18 Q18,36 0,18"/></marker></defs><defs><marker id="my-svg_er-zeroOrMoreEnd" class="marker zeroOrMore er" refX="39" refY="18" markerWidth="57" markerHeight="36" orient="auto"><circle fill="white" cx="9" cy="18" r="6"/><path d="M21,18 Q39,0 57,18 Q39,36 21,18"/></marker></defs><g class="root"><g class="clusters"/><g class="edgePaths"><path d="M237.937,156.875L217.641,176.104C197.344,195.333,156.75,233.792,136.453,265C116.156,296.208,116.156,320.167,116.156,332.146L116.156,344.125" id="id_entity-User-0_entity-Profile-1_0" class="edge-thickness-normal edge-pattern-solid relationshipLine" style="undefined;;;undefined" data-edge="true" data-et="edge" data-id="id_entity-User-0_entity-Profile-1_0" data-points="W3sieCI6MjM3LjkzNzQ3MjA3NjA1MjQyLCJ5IjoxNTYuODc1fSx7IngiOjExNi4xNTYyNSwieSI6MjcyLjI1fSx7IngiOjExNi4xNTYyNSwieSI6MzQ0LjEyNX1d" marker-start="url(#my-svg_er-onlyOneStart)" marker-end="url(#my-svg_er-onlyOneEnd)"/><path d="M327.098,156.875L347.622,176.104C368.146,195.333,409.194,233.792,429.718,268.563C450.242,303.333,450.242,334.417,450.242,349.958L450.242,365.5" id="id_entity-User-0_entity-PlayList-2_1" class="edge-thickness-normal edge-pattern-solid relationshipLine" style="undefined;;;undefined" data-edge="true" data-et="edge" data-id="id_entity-User-0_entity-PlayList-2_1" data-points="W3sieCI6MzI3LjA5NzgxNzU4ODM2MzgsInkiOjE1Ni44NzV9LHsieCI6NDUwLjI0MjE4NzUsInkiOjI3Mi4yNX0seyJ4Ijo0NTAuMjQyMTg3NSwieSI6MzY1LjV9XQ==" marker-start="url(#my-svg_er-onlyOneStart)" marker-end="url(#my-svg_er-zeroOrMoreEnd)"/><path d="M450.242,451L450.242,466.542C450.242,482.083,450.242,513.167,450.242,537.125C450.242,561.083,450.242,577.917,450.242,586.333L450.242,594.75" id="id_entity-PlayList-2_entity-PlayListItem-3_2" class="edge-thickness-normal edge-pattern-solid relationshipLine" style="undefined;;;undefined" data-edge="true" data-et="edge" data-id="id_entity-PlayList-2_entity-PlayListItem-3_2" data-points="W3sieCI6NDUwLjI0MjE4NzUsInkiOjQ1MX0seyJ4Ijo0NTAuMjQyMTg3NSwieSI6NTQ0LjI1fSx7IngiOjQ1MC4yNDIxODc1LCJ5Ijo1OTQuNzV9XQ==" marker-start="url(#my-svg_er-onlyOneStart)" marker-end="url(#my-svg_er-zeroOrMoreEnd)"/><path d="M765.094,221.75L765.094,230.167C765.094,238.583,765.094,255.417,775.964,272.25C786.835,289.083,808.575,305.917,819.446,314.333L830.316,322.75" id="id_entity-Podcast-4_entity-PodcastEpisode-5_3" class="edge-thickness-normal edge-pattern-solid relationshipLine" style="undefined;;;undefined" data-edge="true" data-et="edge" data-id="id_entity-Podcast-4_entity-PodcastEpisode-5_3" data-points="W3sieCI6NzY1LjA5Mzc1LCJ5IjoyMjEuNzV9LHsieCI6NzY1LjA5Mzc1LCJ5IjoyNzIuMjV9LHsieCI6ODMwLjMxNjE0Nzc0ODE2MTcsInkiOjMyMi43NX1d" marker-start="url(#my-svg_er-onlyOneStart)" marker-end="url(#my-svg_er-zeroOrMoreEnd)"/><path d="M1087.855,156.875L1087.855,176.104C1087.855,195.333,1087.855,233.792,1110.966,268.563C1134.076,303.333,1180.297,334.417,1203.407,349.958L1226.517,365.5" id="id_entity-Audiobook-6_entity-AudiobookChapter-7_4" class="edge-thickness-normal edge-pattern-solid relationshipLine" style="undefined;;;undefined" data-edge="true" data-et="edge" data-id="id_entity-Audiobook-6_entity-AudiobookChapter-7_4" data-points="W3sieCI6MTA4Ny44NTU0Njg3NSwieSI6MTU2Ljg3NX0seyJ4IjoxMDg3Ljg1NTQ2ODc1LCJ5IjoyNzIuMjV9LHsieCI6MTIyNi41MTcxNjg4MzA0MjI5LCJ5IjozNjUuNX1d" marker-start="url(#my-svg_er-onlyOneStart)" marker-end="url(#my-svg_er-zeroOrMoreEnd)"/><path d="M1734.785,156.875L1734.785,176.104C1734.785,195.333,1734.785,233.792,1731.53,268.563C1728.274,303.333,1721.763,334.417,1718.507,349.958L1715.252,365.5" id="id_entity-Album-8_entity-AlbumTrack-9_5" class="edge-thickness-normal edge-pattern-solid relationshipLine" style="undefined;;;undefined" data-edge="true" data-et="edge" data-id="id_entity-Album-8_entity-AlbumTrack-9_5" data-points="W3sieCI6MTczNC43ODUxNTYyNSwieSI6MTU2Ljg3NX0seyJ4IjoxNzM0Ljc4NTE1NjI1LCJ5IjoyNzIuMjV9LHsieCI6MTcxNS4yNTE4MzEwNTQ2ODc1LCJ5IjozNjUuNX1d" marker-start="url(#my-svg_er-onlyOneStart)" marker-end="url(#my-svg_er-zeroOrMoreEnd)"/><path d="M1364.926,180.537L1343.991,195.822C1323.056,211.108,1281.186,241.679,1229.723,270.87C1178.26,300.061,1117.204,327.872,1086.676,341.777L1056.148,355.683" id="id_entity-MediaFile-10_entity-PodcastEpisode-5_6" class="edge-thickness-normal edge-pattern-solid relationshipLine" style="undefined;;;undefined" data-edge="true" data-et="edge" data-id="id_entity-MediaFile-10_entity-PodcastEpisode-5_6" data-points="W3sieCI6MTM2NC45MjU3ODEyNSwieSI6MTgwLjUzNjgwODE0ODE3NX0seyJ4IjoxMjM5LjMxNjQwNjI1LCJ5IjoyNzIuMjV9LHsieCI6MTA1Ni4xNDg0Mzc1LCJ5IjozNTUuNjgyNjY4MjgwMjM4MX1d" marker-start="url(#my-svg_er-onlyOneStart)" marker-end="url(#my-svg_er-zeroOrMoreEnd)"/><path d="M1444.007,200.375L1442.487,212.354C1440.967,224.333,1437.927,248.292,1419.859,275.813C1401.792,303.333,1368.697,334.417,1352.15,349.958L1335.602,365.5" id="id_entity-MediaFile-10_entity-AudiobookChapter-7_7" class="edge-thickness-normal edge-pattern-solid relationshipLine" style="undefined;;;undefined" data-edge="true" data-et="edge" data-id="id_entity-MediaFile-10_entity-AudiobookChapter-7_7" data-points="W3sieCI6MTQ0NC4wMDY2ODAwMjg3OTI3LCJ5IjoyMDAuMzc1fSx7IngiOjE0MzQuODg2NzE4NzUsInkiOjI3Mi4yNX0seyJ4IjoxMzM1LjYwMjM1OTU0NzMzNDYsInkiOjM2NS41fV0=" marker-start="url(#my-svg_er-onlyOneStart)" marker-end="url(#my-svg_er-zeroOrMoreEnd)"/><path d="M1515.924,200.375L1524.481,212.354C1533.037,224.333,1550.149,248.292,1574.594,275.813C1599.039,303.333,1630.816,334.417,1646.704,349.958L1662.593,365.5" id="id_entity-MediaFile-10_entity-AlbumTrack-9_8" class="edge-thickness-normal edge-pattern-solid relationshipLine" style="undefined;;;undefined" data-edge="true" data-et="edge" data-id="id_entity-MediaFile-10_entity-AlbumTrack-9_8" data-points="W3sieCI6MTUxNS45MjQ0NzE5MjcxMjQ2LCJ5IjoyMDAuMzc1fSx7IngiOjE1NjcuMjYxNzE4NzUsInkiOjI3Mi4yNX0seyJ4IjoxNjYyLjU5MjgwOTM0MDUzMywieSI6MzY1LjV9XQ==" marker-start="url(#my-svg_er-onlyOneStart)" marker-end="url(#my-svg_er-zeroOrMoreEnd)"/></g><g class="edgeLabels"><g class="edgeLabel" transform="translate(116.15625, 272.25)"><g class="label" data-id="id_entity-User-0_entity-Profile-1_0" transform="translate(-11.2890625, -10.5)"><foreignObject width="22.578125" height="21"><div xmlns="http://www.w3.org/1999/xhtml" class="labelBkg" style="display: table-cell; white-space: nowrap; line-height: 1.5; max-width: 200px; text-align: center;"><span class="edgeLabel"><p>has</p></span></div></foreignObject></g></g><g class="edgeLabel" transform="translate(450.2421875, 272.25)"><g class="label" data-id="id_entity-User-0_entity-PlayList-2_1" transform="translate(-16.34375, -10.5)"><foreignObject width="32.6875" height="21"><div xmlns="http://www.w3.org/1999/xhtml" class="labelBkg" style="display: table-cell; white-space: nowrap; line-height: 1.5; max-width: 200px; text-align: center;"><span class="edgeLabel"><p>owns</p></span></div></foreignObject></g></g><g class="edgeLabel" transform="translate(450.2421875, 544.25)"><g class="label" data-id="id_entity-PlayList-2_entity-PlayListItem-3_2" transform="translate(-26.078125, -10.5)"><foreignObject width="52.15625" height="21"><div xmlns="http://www.w3.org/1999/xhtml" class="labelBkg" style="display: table-cell; white-space: nowrap; line-height: 1.5; max-width: 200px; text-align: center;"><span class="edgeLabel"><p>contains</p></span></div></foreignObject></g></g><g class="edgeLabel" transform="translate(765.09375, 272.25)"><g class="label" data-id="id_entity-Podcast-4_entity-PodcastEpisode-5_3" transform="translate(-26.078125, -10.5)"><foreignObject width="52.15625" height="21"><div xmlns="http://www.w3.org/1999/xhtml" class="labelBkg" style="display: table-cell; white-space: nowrap; line-height: 1.5; max-width: 200px; text-align: center;"><span class="edgeLabel"><p>contains</p></span></div></foreignObject></g></g><g class="edgeLabel" transform="translate(1087.85546875, 272.25)"><g class="label" data-id="id_entity-Audiobook-6_entity-AudiobookChapter-7_4" transform="translate(-26.078125, -10.5)"><foreignObject width="52.15625" height="21"><div xmlns="http://www.w3.org/1999/xhtml" class="labelBkg" style="display: table-cell; white-space: nowrap; line-height: 1.5; max-width: 200px; text-align: center;"><span class="edgeLabel"><p>contains</p></span></div></foreignObject></g></g><g class="edgeLabel" transform="translate(1734.78515625, 272.25)"><g class="label" data-id="id_entity-Album-8_entity-AlbumTrack-9_5" transform="translate(-26.078125, -10.5)"><foreignObject width="52.15625" height="21"><div xmlns="http://www.w3.org/1999/xhtml" class="labelBkg" style="display: table-cell; white-space: nowrap; line-height: 1.5; max-width: 200px; text-align: center;"><span class="edgeLabel"><p>contains</p></span></div></foreignObject></g></g><g class="edgeLabel" transform="translate(1218.50084, 281.73145)"><g class="label" data-id="id_entity-MediaFile-10_entity-PodcastEpisode-5_6" transform="translate(-10.8984375, -10.5)"><foreignObject width="21.796875" height="21"><div xmlns="http://www.w3.org/1999/xhtml" class="labelBkg" style="display: table-cell; white-space: nowrap; line-height: 1.5; max-width: 200px; text-align: center;"><span class="edgeLabel"><p>is a</p></span></div></foreignObject></g></g><g class="edgeLabel" transform="translate(1411.6498, 294.07461)"><g class="label" data-id="id_entity-MediaFile-10_entity-AudiobookChapter-7_7" transform="translate(-10.8984375, -10.5)"><foreignObject width="21.796875" height="21"><div xmlns="http://www.w3.org/1999/xhtml" class="labelBkg" style="display: table-cell; white-space: nowrap; line-height: 1.5; max-width: 200px; text-align: center;"><span class="edgeLabel"><p>is a</p></span></div></foreignObject></g></g><g class="edgeLabel" transform="translate(1583.35652, 287.99345)"><g class="label" data-id="id_entity-MediaFile-10_entity-AlbumTrack-9_8" transform="translate(-10.8984375, -10.5)"><foreignObject width="21.796875" height="21"><div xmlns="http://www.w3.org/1999/xhtml" class="labelBkg" style="display: table-cell; white-space: nowrap; line-height: 1.5; max-width: 200px; text-align: center;"><span class="edgeLabel"><p>is a</p></span></div></foreignObject></g></g></g><g class="nodes"><g class="node default" id="entity-User-0" transform="translate(282.26953125, 114.875)"><rect class="basic label-container" style="" x="-50" y="-42" width="100" height="84"/><g class="label" style="" transform="translate(-16.890625, -12)"><rect/><foreignObject width="33.78125" height="24"><div xmlns="http://www.w3.org/1999/xhtml" style="display: table-cell; white-space: nowrap; line-height: 1.5; max-width: 100px; text-align: center;"><span class="nodeLabel"><p>User</p></span></div></foreignObject></g></g><g class="node default" id="entity-Profile-1" transform="translate(116.15625, 408.25)"><g style=""><path d="M-108.15625 -64.125 L108.15625 -64.125 L108.15625 64.125 L-108.15625 64.125" stroke="none" stroke-width="0" fill="#ECECFF"/><path d="M-108.15625 -64.125 C-59.426732928293404 -64.125, -10.697215856586809 -64.125, 108.15625 -64.125 M-108.15625 -64.125 C-43.80168702777803 -64.125, 20.55287594444394 -64.125, 108.15625 -64.125 M108.15625 -64.125 C108.15625 -25.352244553817897, 108.15625 13.420510892364206, 108.15625 64.125 M108.15625 -64.125 C108.15625 -37.72063499222273, 108.15625 -11.316269984445455, 108.15625 64.125 M108.15625 64.125 C33.13251241712638 64.125, -41.891225165747244 64.125, -108.15625 64.125 M108.15625 64.125 C25.827571769852526 64.125, -56.50110646029495 64.125, -108.15625 64.125 M-108.15625 64.125 C-108.15625 35.351158366239886, -108.15625 6.57731673247978, -108.15625 -64.125 M-108.15625 64.125 C-108.15625 15.658745505157214, -108.15625 -32.80750898968557, -108.15625 -64.125" stroke="#9370DB" stroke-width="1.3" fill="none" stroke-dasharray="0 0"/></g><g style="" class="row-rect-odd"><path d="M-108.15625 -21.375 L108.15625 -21.375 L108.15625 21.375 L-108.15625 21.375" stroke="none" stroke-width="0" fill="hsl(240, 100%, 100%)"/><path d="M-108.15625 -21.375 C-42.89992121667123 -21.375, 22.356407566657538 -21.375, 108.15625 -21.375 M-108.15625 -21.375 C-25.603539648933562 -21.375, 56.949170702132875 -21.375, 108.15625 -21.375 M108.15625 -21.375 C108.15625 -11.153408024749611, 108.15625 -0.931816049499222, 108.15625 21.375 M108.15625 -21.375 C108.15625 -5.380877560408816, 108.15625 10.613244879182368, 108.15625 21.375 M108.15625 21.375 C38.66832890371769 21.375, -30.819592192564613 21.375, -108.15625 21.375 M108.15625 21.375 C45.79839171824432 21.375, -16.559466563511364 21.375, -108.15625 21.375 M-108.15625 21.375 C-108.15625 5.241190266842935, -108.15625 -10.89261946631413, -108.15625 -21.375 M-108.15625 21.375 C-108.15625 9.867969146970427, -108.15625 -1.6390617060591453, -108.15625 -21.375" stroke="#9370DB" stroke-width="1.3" fill="none" stroke-dasharray="0 0"/></g><g style="" class="row-rect-even"><path d="M-108.15625 21.375 L108.15625 21.375 L108.15625 64.125 L-108.15625 64.125" stroke="none" stroke-width="0" fill="hsl(240, 100%, 97.2745098039%)"/><path d="M-108.15625 21.375 C-62.40791344619678 21.375, -16.65957689239356 21.375, 108.15625 21.375 M-108.15625 21.375 C-64.09270274365142 21.375, -20.02915548730283 21.375, 108.15625 21.375 M108.15625 21.375 C108.15625 37.813933293467876, 108.15625 54.25286658693575, 108.15625 64.125 M108.15625 21.375 C108.15625 35.50350508615246, 108.15625 49.632010172304916, 108.15625 64.125 M108.15625 64.125 C64.74798537131502 64.125, 21.339720742630035 64.125, -108.15625 64.125 M108.15625 64.125 C23.764154750900218 64.125, -60.627940498199564 64.125, -108.15625 64.125 M-108.15625 64.125 C-108.15625 49.60057637950031, -108.15625 35.07615275900062, -108.15625 21.375 M-108.15625 64.125 C-108.15625 52.787517358267095, -108.15625 41.450034716534184, -108.15625 21.375" stroke="#9370DB" stroke-width="1.3" fill="none" stroke-dasharray="0 0"/></g><g class="label name" transform="translate(-22.6796875, -54.75)" style=""><foreignObject width="45.359375" height="24"><div xmlns="http://www.w3.org/1999/xhtml" style="display: table-cell; white-space: nowrap; line-height: 1.5; max-width: 144px; text-align: start;"><span class="nodeLabel"><p>Profile</p></span></div></foreignObject></g><g class="label attribute-type" transform="translate(-95.65625, -12)" style=""><foreignObject width="77.359375" height="24"><div xmlns="http://www.w3.org/1999/xhtml" style="display: table-cell; white-space: nowrap; line-height: 1.5; max-width: 171px; text-align: start;"><span class="nodeLabel"><p>JSONField</p></span></div></foreignObject></g><g class="label attribute-name" transform="translate(6.703125, -12)" style=""><foreignObject width="88.953125" height="24"><div xmlns="http://www.w3.org/1999/xhtml" style="display: table-cell; white-space: nowrap; line-height: 1.5; max-width: 184px; text-align: start;"><span class="nodeLabel"><p>now_playing</p></span></div></foreignObject></g><g class="label attribute-keys" transform="translate(120.65625, -12)" style=""><foreignObject width="0" height="0"><div xmlns="http://www.w3.org/1999/xhtml" style="display: table-cell; white-space: nowrap; line-height: 1.5; max-width: 100px; text-align: start;"><span class="nodeLabel"></span></div></foreignObject></g><g class="label attribute-comment" transform="translate(120.65625, -12)" style=""><foreignObject width="0" height="0"><div xmlns="http://www.w3.org/1999/xhtml" style="display: table-cell; white-space: nowrap; line-height: 1.5; max-width: 100px; text-align: start;"><span class="nodeLabel"></span></div></foreignObject></g><g class="label attribute-type" transform="translate(-95.65625, 30.75)" style=""><foreignObject width="77.359375" height="24"><div xmlns="http://www.w3.org/1999/xhtml" style="display: table-cell; white-space: nowrap; line-height: 1.5; max-width: 171px; text-align: start;"><span class="nodeLabel"><p>JSONField</p></span></div></foreignObject></g><g class="label attribute-name" transform="translate(6.703125, 30.75)" style=""><foreignObject width="44.5" height="24"><div xmlns="http://www.w3.org/1999/xhtml" style="display: table-cell; white-space: nowrap; line-height: 1.5; max-width: 138px; text-align: start;"><span class="nodeLabel"><p>queue</p></span></div></foreignObject></g><g class="label attribute-keys" transform="translate(120.65625, 30.75)" style=""><foreignObject width="0" height="0"><div xmlns="http://www.w3.org/1999/xhtml" style="display: table-cell; white-space: nowrap; line-height: 1.5; max-width: 100px; text-align: start;"><span class="nodeLabel"></span></div></foreignObject></g><g class="label attribute-comment" transform="translate(120.65625, 30.75)" style=""><foreignObject width="0" height="0"><div xmlns="http://www.w3.org/1999/xhtml" style="display: table-cell; white-space: nowrap; line-height: 1.5; max-width: 100px; text-align: start;"><span class="nodeLabel"></span></div></foreignObject></g><g class="divider"><path d="M-108.15625 -21.375 C-52.84697723523464 -21.375, 2.4622955295307207 -21.375, 108.15625 -21.375 M-108.15625 -21.375 C-32.0835754513751 -21.375, 43.989099097249806 -21.375, 108.15625 -21.375" stroke="#9370DB" stroke-width="1.3" fill="none" stroke-dasharray="0 0"/></g><g class="divider"><path d="M-5.796875 -21.375 C-5.796875 12.057553366137746, -5.796875 45.49010673227549, -5.796875 64.125 M-5.796875 -21.375 C-5.796875 -0.9418208926467031, -5.796875 19.491358214706594, -5.796875 64.125" stroke="#9370DB" stroke-width="1.3" fill="none" stroke-dasharray="0 0"/></g><g class="divider"><path d="M-108.15625 -21.375 C-28.314238005495625 -21.375, 51.52777398900875 -21.375, 108.15625 -21.375 M-108.15625 -21.375 C-43.32433341437398 -21.375, 21.507583171252037 -21.375, 108.15625 -21.375" stroke="#9370DB" stroke-width="1.3" fill="none" stroke-dasharray="0 0"/></g></g><g class="node default" id="entity-PlayList-2" transform="translate(450.2421875, 408.25)"><g style=""><path d="M-85.9296875 -42.75 L85.9296875 -42.75 L85.9296875 42.75 L-85.9296875 42.75" stroke="none" stroke-width="0" fill="#ECECFF"/><path d="M-85.9296875 -42.75 C-40.91258290826825 -42.75, 4.104521683463503 -42.75, 85.9296875 -42.75 M-85.9296875 -42.75 C-41.33849305880751 -42.75, 3.252701382384984 -42.75, 85.9296875 -42.75 M85.9296875 -42.75 C85.9296875 -24.51824873711183, 85.9296875 -6.286497474223658, 85.9296875 42.75 M85.9296875 -42.75 C85.9296875 -17.470478729333774, 85.9296875 7.8090425413324525, 85.9296875 42.75 M85.9296875 42.75 C26.77149081092474 42.75, -32.38670587815052 42.75, -85.9296875 42.75 M85.9296875 42.75 C35.20864990864365 42.75, -15.5123876827127 42.75, -85.9296875 42.75 M-85.9296875 42.75 C-85.9296875 18.860853100308194, -85.9296875 -5.028293799383611, -85.9296875 -42.75 M-85.9296875 42.75 C-85.9296875 17.29516195054094, -85.9296875 -8.15967609891812, -85.9296875 -42.75" stroke="#9370DB" stroke-width="1.3" fill="none" stroke-dasharray="0 0"/></g><g style="" class="row-rect-odd"><path d="M-85.9296875 0 L85.9296875 0 L85.9296875 42.75 L-85.9296875 42.75" stroke="none" stroke-width="0" fill="hsl(240, 100%, 100%)"/><path d="M-85.9296875 0 C-31.468324424587387 0, 22.993038650825227 0, 85.9296875 0 M-85.9296875 0 C-33.858154995012406 0, 18.21337750997519 0, 85.9296875 0 M85.9296875 0 C85.9296875 16.14710406219005, 85.9296875 32.2942081243801, 85.9296875 42.75 M85.9296875 0 C85.9296875 12.604640748230294, 85.9296875 25.209281496460587, 85.9296875 42.75 M85.9296875 42.75 C22.58278616238408 42.75, -40.76411517523184 42.75, -85.9296875 42.75 M85.9296875 42.75 C33.56267861479731 42.75, -18.804330270405373 42.75, -85.9296875 42.75 M-85.9296875 42.75 C-85.9296875 30.7187411229195, -85.9296875 18.687482245839, -85.9296875 0 M-85.9296875 42.75 C-85.9296875 33.20210051750374, -85.9296875 23.65420103500748, -85.9296875 0" stroke="#9370DB" stroke-width="1.3" fill="none" stroke-dasharray="0 0"/></g><g class="label name" transform="translate(-28.015625, -33.375)" style=""><foreignObject width="56.03125" height="24"><div xmlns="http://www.w3.org/1999/xhtml" style="display: table-cell; white-space: nowrap; line-height: 1.5; max-width: 154px; text-align: start;"><span class="nodeLabel"><p>PlayList</p></span></div></foreignObject></g><g class="label attribute-type" transform="translate(-73.4296875, 9.375)" style=""><foreignObject width="39.125" height="24"><div xmlns="http://www.w3.org/1999/xhtml" style="display: table-cell; white-space: nowrap; line-height: 1.5; max-width: 136px; text-align: start;"><span class="nodeLabel"><p>string</p></span></div></foreignObject></g><g class="label attribute-name" transform="translate(-9.3046875, 9.375)" style=""><foreignObject width="82.734375" height="24"><div xmlns="http://www.w3.org/1999/xhtml" style="display: table-cell; white-space: nowrap; line-height: 1.5; max-width: 175px; text-align: start;"><span class="nodeLabel"><p>placeholder</p></span></div></foreignObject></g><g class="label attribute-keys" transform="translate(98.4296875, 9.375)" style=""><foreignObject width="0" height="0"><div xmlns="http://www.w3.org/1999/xhtml" style="display: table-cell; white-space: nowrap; line-height: 1.5; max-width: 100px; text-align: start;"><span class="nodeLabel"></span></div></foreignObject></g><g class="label attribute-comment" transform="translate(98.4296875, 9.375)" style=""><foreignObject width="0" height="0"><div xmlns="http://www.w3.org/1999/xhtml" style="display: table-cell; white-space: nowrap; line-height: 1.5; max-width: 100px; text-align: start;"><span class="nodeLabel"></span></div></foreignObject></g><g class="divider"><path d="M-85.9296875 0 C-35.32509637170936 0, 15.279494756581286 0, 85.9296875 0 M-85.9296875 0 C-48.24481285609082 0, -10.559938212181635 0, 85.9296875 0" stroke="#9370DB" stroke-width="1.3" fill="none" stroke-dasharray="0 0"/></g><g class="divider"><path d="M-21.8046875 0 C-21.8046875 14.603645132345452, -21.8046875 29.207290264690904, -21.8046875 42.75 M-21.8046875 0 C-21.8046875 9.353891231553627, -21.8046875 18.707782463107254, -21.8046875 42.75" stroke="#9370DB" stroke-width="1.3" fill="none" stroke-dasharray="0 0"/></g><g class="divider"><path d="M-85.9296875 0 C-41.11488382519613 0, 3.6999198496077383 0, 85.9296875 0 M-85.9296875 0 C-40.70408437271664 0, 4.5215187545667135 0, 85.9296875 0" stroke="#9370DB" stroke-width="1.3" fill="none" stroke-dasharray="0 0"/></g></g><g class="node default" id="entity-PlayListItem-3" transform="translate(450.2421875, 637.5)"><g style=""><path d="M-113.9375 -42.75 L113.9375 -42.75 L113.9375 42.75 L-113.9375 42.75" stroke="none" stroke-width="0" fill="#ECECFF"/><path d="M-113.9375 -42.75 C-45.36257706555243 -42.75, 23.21234586889514 -42.75, 113.9375 -42.75 M-113.9375 -42.75 C-52.816676506753986 -42.75, 8.304146986492029 -42.75, 113.9375 -42.75 M113.9375 -42.75 C113.9375 -9.71961107001551, 113.9375 23.31077785996898, 113.9375 42.75 M113.9375 -42.75 C113.9375 -20.35037555049682, 113.9375 2.0492488990063578, 113.9375 42.75 M113.9375 42.75 C38.96355904586598 42.75, -36.010381908268045 42.75, -113.9375 42.75 M113.9375 42.75 C35.421021090270045 42.75, -43.09545781945991 42.75, -113.9375 42.75 M-113.9375 42.75 C-113.9375 13.190923883268912, -113.9375 -16.368152233462176, -113.9375 -42.75 M-113.9375 42.75 C-113.9375 12.661537448812272, -113.9375 -17.426925102375456, -113.9375 -42.75" stroke="#9370DB" stroke-width="1.3" fill="none" stroke-dasharray="0 0"/></g><g style="" class="row-rect-odd"><path d="M-113.9375 0 L113.9375 0 L113.9375 42.75 L-113.9375 42.75" stroke="none" stroke-width="0" fill="hsl(240, 100%, 100%)"/><path d="M-113.9375 0 C-34.640288144300754 0, 44.65692371139849 0, 113.9375 0 M-113.9375 0 C-27.54010212958461 0, 58.85729574083078 0, 113.9375 0 M113.9375 0 C113.9375 12.171650786981942, 113.9375 24.343301573963885, 113.9375 42.75 M113.9375 0 C113.9375 15.819427417086194, 113.9375 31.63885483417239, 113.9375 42.75 M113.9375 42.75 C39.26422321169947 42.75, -35.40905357660105 42.75, -113.9375 42.75 M113.9375 42.75 C65.15168882182553 42.75, 16.365877643651075 42.75, -113.9375 42.75 M-113.9375 42.75 C-113.9375 26.56838491340162, -113.9375 10.386769826803238, -113.9375 0 M-113.9375 42.75 C-113.9375 32.714462389240126, -113.9375 22.67892477848025, -113.9375 0" stroke="#9370DB" stroke-width="1.3" fill="none" stroke-dasharray="0 0"/></g><g class="label name" transform="translate(-43.5703125, -33.375)" style=""><foreignObject width="87.140625" height="24"><div xmlns="http://www.w3.org/1999/xhtml" style="display: table-cell; white-space: nowrap; line-height: 1.5; max-width: 183px; text-align: start;"><span class="nodeLabel"><p>PlayListItem</p></span></div></foreignObject></g><g class="label attribute-type" transform="translate(-101.4375, 9.375)" style=""><foreignObject width="84.5" height="24"><div xmlns="http://www.w3.org/1999/xhtml" style="display: table-cell; white-space: nowrap; line-height: 1.5; max-width: 178px; text-align: start;"><span class="nodeLabel"><p>IntegerField</p></span></div></foreignObject></g><g class="label attribute-name" transform="translate(8.0625, 9.375)" style=""><foreignObject width="93.375" height="24"><div xmlns="http://www.w3.org/1999/xhtml" style="display: table-cell; white-space: nowrap; line-height: 1.5; max-width: 194px; text-align: start;"><span class="nodeLabel"><p>item_number</p></span></div></foreignObject></g><g class="label attribute-keys" transform="translate(126.4375, 9.375)" style=""><foreignObject width="0" height="0"><div xmlns="http://www.w3.org/1999/xhtml" style="display: table-cell; white-space: nowrap; line-height: 1.5; max-width: 100px; text-align: start;"><span class="nodeLabel"></span></div></foreignObject></g><g class="label attribute-comment" transform="translate(126.4375, 9.375)" style=""><foreignObject width="0" height="0"><div xmlns="http://www.w3.org/1999/xhtml" style="display: table-cell; white-space: nowrap; line-height: 1.5; max-width: 100px; text-align: start;"><span class="nodeLabel"></span></div></foreignObject></g><g class="divider"><path d="M-113.9375 0 C-54.214554846563075 0, 5.508390306873849 0, 113.9375 0 M-113.9375 0 C-66.74015066430225 0, -19.542801328604497 0, 113.9375 0" stroke="#9370DB" stroke-width="1.3" fill="none" stroke-dasharray="0 0"/></g><g class="divider"><path d="M-4.4375 0 C-4.4375 13.302207828825967, -4.4375 26.604415657651934, -4.4375 42.75 M-4.4375 0 C-4.4375 12.578095348415953, -4.4375 25.156190696831906, -4.4375 42.75" stroke="#9370DB" stroke-width="1.3" fill="none" stroke-dasharray="0 0"/></g><g class="divider"><path d="M-113.9375 0 C-52.97276595369661 0, 7.991968092606783 0, 113.9375 0 M-113.9375 0 C-51.83912269099383 0, 10.259254618012335 0, 113.9375 0" stroke="#9370DB" stroke-width="1.3" fill="none" stroke-dasharray="0 0"/></g></g><g class="node default" id="entity-Podcast-4" transform="translate(765.09375, 114.875)"><g style=""><path d="M-98.3671875 -106.875 L98.3671875 -106.875 L98.3671875 106.875 L-98.3671875 106.875" stroke="none" stroke-width="0" fill="#ECECFF"/><path d="M-98.3671875 -106.875 C-35.964610741253075 -106.875, 26.43796601749385 -106.875, 98.3671875 -106.875 M-98.3671875 -106.875 C-20.850373886329223 -106.875, 56.666439727341555 -106.875, 98.3671875 -106.875 M98.3671875 -106.875 C98.3671875 -56.45315881755399, 98.3671875 -6.031317635107982, 98.3671875 106.875 M98.3671875 -106.875 C98.3671875 -57.366312487263535, 98.3671875 -7.85762497452707, 98.3671875 106.875 M98.3671875 106.875 C20.485599201826247 106.875, -57.395989096347506 106.875, -98.3671875 106.875 M98.3671875 106.875 C29.926369557456482 106.875, -38.514448385087036 106.875, -98.3671875 106.875 M-98.3671875 106.875 C-98.3671875 46.11441969994077, -98.3671875 -14.646160600118463, -98.3671875 -106.875 M-98.3671875 106.875 C-98.3671875 38.48287461377784, -98.3671875 -29.909250772444324, -98.3671875 -106.875" stroke="#9370DB" stroke-width="1.3" fill="none" stroke-dasharray="0 0"/></g><g style="" class="row-rect-odd"><path d="M-98.3671875 -64.125 L98.3671875 -64.125 L98.3671875 -21.375 L-98.3671875 -21.375" stroke="none" stroke-width="0" fill="hsl(240, 100%, 100%)"/><path d="M-98.3671875 -64.125 C-32.75658577030802 -64.125, 32.85401595938396 -64.125, 98.3671875 -64.125 M-98.3671875 -64.125 C-56.135178356866604 -64.125, -13.903169213733207 -64.125, 98.3671875 -64.125 M98.3671875 -64.125 C98.3671875 -55.24441520674025, 98.3671875 -46.3638304134805, 98.3671875 -21.375 M98.3671875 -64.125 C98.3671875 -51.950669189329886, 98.3671875 -39.77633837865978, 98.3671875 -21.375 M98.3671875 -21.375 C46.41952041370038 -21.375, -5.5281466725992345 -21.375, -98.3671875 -21.375 M98.3671875 -21.375 C34.17369732137112 -21.375, -30.019792857257755 -21.375, -98.3671875 -21.375 M-98.3671875 -21.375 C-98.3671875 -31.802033184333872, -98.3671875 -42.229066368667745, -98.3671875 -64.125 M-98.3671875 -21.375 C-98.3671875 -34.803934320701266, -98.3671875 -48.23286864140253, -98.3671875 -64.125" stroke="#9370DB" stroke-width="1.3" fill="none" stroke-dasharray="0 0"/></g><g style="" class="row-rect-even"><path d="M-98.3671875 -21.375 L98.3671875 -21.375 L98.3671875 21.375 L-98.3671875 21.375" stroke="none" stroke-width="0" fill="hsl(240, 100%, 97.2745098039%)"/><path d="M-98.3671875 -21.375 C-46.84704216209337 -21.375, 4.673103175813253 -21.375, 98.3671875 -21.375 M-98.3671875 -21.375 C-55.02038090671653 -21.375, -11.673574313433065 -21.375, 98.3671875 -21.375 M98.3671875 -21.375 C98.3671875 -4.918914999059432, 98.3671875 11.537170001881137, 98.3671875 21.375 M98.3671875 -21.375 C98.3671875 -10.197861957011222, 98.3671875 0.9792760859775562, 98.3671875 21.375 M98.3671875 21.375 C22.29939316350155 21.375, -53.7684011729969 21.375, -98.3671875 21.375 M98.3671875 21.375 C51.53219254843532 21.375, 4.697197596870637 21.375, -98.3671875 21.375 M-98.3671875 21.375 C-98.3671875 11.363442981647637, -98.3671875 1.351885963295274, -98.3671875 -21.375 M-98.3671875 21.375 C-98.3671875 7.258390354329567, -98.3671875 -6.858219291340866, -98.3671875 -21.375" stroke="#9370DB" stroke-width="1.3" fill="none" stroke-dasharray="0 0"/></g><g style="" class="row-rect-odd"><path d="M-98.3671875 21.375 L98.3671875 21.375 L98.3671875 64.125 L-98.3671875 64.125" stroke="none" stroke-width="0" fill="hsl(240, 100%, 100%)"/><path d="M-98.3671875 21.375 C-38.40267933140663 21.375, 21.561828837186738 21.375, 98.3671875 21.375 M-98.3671875 21.375 C-43.923078700983616 21.375, 10.521030098032767 21.375, 98.3671875 21.375 M98.3671875 21.375 C98.3671875 34.6821791882149, 98.3671875 47.9893583764298, 98.3671875 64.125 M98.3671875 21.375 C98.3671875 33.07147827485835, 98.3671875 44.7679565497167, 98.3671875 64.125 M98.3671875 64.125 C27.20900648602256 64.125, -43.94917452795488 64.125, -98.3671875 64.125 M98.3671875 64.125 C52.62737043329638 64.125, 6.887553366592755 64.125, -98.3671875 64.125 M-98.3671875 64.125 C-98.3671875 51.086391499847664, -98.3671875 38.04778299969533, -98.3671875 21.375 M-98.3671875 64.125 C-98.3671875 52.24914093331288, -98.3671875 40.37328186662576, -98.3671875 21.375" stroke="#9370DB" stroke-width="1.3" fill="none" stroke-dasharray="0 0"/></g><g style="" class="row-rect-even"><path d="M-98.3671875 64.125 L98.3671875 64.125 L98.3671875 106.875 L-98.3671875 106.875" stroke="none" stroke-width="0" fill="hsl(240, 100%, 97.2745098039%)"/><path d="M-98.3671875 64.125 C-25.361858895206083 64.125, 47.64346970958783 64.125, 98.3671875 64.125 M-98.3671875 64.125 C-42.71975358983755 64.125, 12.927680320324896 64.125, 98.3671875 64.125 M98.3671875 64.125 C98.3671875 79.62065576018641, 98.3671875 95.11631152037282, 98.3671875 106.875 M98.3671875 64.125 C98.3671875 75.30742506153365, 98.3671875 86.4898501230673, 98.3671875 106.875 M98.3671875 106.875 C58.60772509083589 106.875, 18.848262681671784 106.875, -98.3671875 106.875 M98.3671875 106.875 C28.853894358642293 106.875, -40.659398782715414 106.875, -98.3671875 106.875 M-98.3671875 106.875 C-98.3671875 94.48655911000573, -98.3671875 82.09811822001146, -98.3671875 64.125 M-98.3671875 106.875 C-98.3671875 94.55409137246201, -98.3671875 82.23318274492401, -98.3671875 64.125" stroke="#9370DB" stroke-width="1.3" fill="none" stroke-dasharray="0 0"/></g><g class="label name" transform="translate(-28.90625, -97.5)" style=""><foreignObject width="57.8125" height="24"><div xmlns="http://www.w3.org/1999/xhtml" style="display: table-cell; white-space: nowrap; line-height: 1.5; max-width: 150px; text-align: start;"><span class="nodeLabel"><p>Podcast</p></span></div></foreignObject></g><g class="label attribute-type" transform="translate(-85.8671875, -54.75)" style=""><foreignObject width="69.359375" height="24"><div xmlns="http://www.w3.org/1999/xhtml" style="display: table-cell; white-space: nowrap; line-height: 1.5; max-width: 164px; text-align: start;"><span class="nodeLabel"><p>CharField</p></span></div></foreignObject></g><g class="label attribute-name" transform="translate(8.4921875, -54.75)" style=""><foreignObject width="24.90625" height="24"><div xmlns="http://www.w3.org/1999/xhtml" style="display: table-cell; white-space: nowrap; line-height: 1.5; max-width: 125px; text-align: start;"><span class="nodeLabel"><p>title</p></span></div></foreignObject></g><g class="label attribute-keys" transform="translate(110.8671875, -54.75)" style=""><foreignObject width="0" height="0"><div xmlns="http://www.w3.org/1999/xhtml" style="display: table-cell; white-space: nowrap; line-height: 1.5; max-width: 100px; text-align: start;"><span class="nodeLabel"></span></div></foreignObject></g><g class="label attribute-comment" transform="translate(110.8671875, -54.75)" style=""><foreignObject width="0" height="0"><div xmlns="http://www.w3.org/1999/xhtml" style="display: table-cell; white-space: nowrap; line-height: 1.5; max-width: 100px; text-align: start;"><span class="nodeLabel"></span></div></foreignObject></g><g class="label attribute-type" transform="translate(-85.8671875, -12)" style=""><foreignObject width="66.6875" height="24"><div xmlns="http://www.w3.org/1999/xhtml" style="display: table-cell; white-space: nowrap; line-height: 1.5; max-width: 165px; text-align: start;"><span class="nodeLabel"><p>URLField</p></span></div></foreignObject></g><g class="label attribute-name" transform="translate(8.4921875, -12)" style=""><foreignObject width="54.25" height="24"><div xmlns="http://www.w3.org/1999/xhtml" style="display: table-cell; white-space: nowrap; line-height: 1.5; max-width: 149px; text-align: start;"><span class="nodeLabel"><p>website</p></span></div></foreignObject></g><g class="label attribute-keys" transform="translate(110.8671875, -12)" style=""><foreignObject width="0" height="0"><div xmlns="http://www.w3.org/1999/xhtml" style="display: table-cell; white-space: nowrap; line-height: 1.5; max-width: 100px; text-align: start;"><span class="nodeLabel"></span></div></foreignObject></g><g class="label attribute-comment" transform="translate(110.8671875, -12)" style=""><foreignObject width="0" height="0"><div xmlns="http://www.w3.org/1999/xhtml" style="display: table-cell; white-space: nowrap; line-height: 1.5; max-width: 100px; text-align: start;"><span class="nodeLabel"></span></div></foreignObject></g><g class="label attribute-type" transform="translate(-85.8671875, 30.75)" style=""><foreignObject width="66.6875" height="24"><div xmlns="http://www.w3.org/1999/xhtml" style="display: table-cell; white-space: nowrap; line-height: 1.5; max-width: 165px; text-align: start;"><span class="nodeLabel"><p>URLField</p></span></div></foreignObject></g><g class="label attribute-name" transform="translate(8.4921875, 30.75)" style=""><foreignObject width="21.328125" height="24"><div xmlns="http://www.w3.org/1999/xhtml" style="display: table-cell; white-space: nowrap; line-height: 1.5; max-width: 118px; text-align: start;"><span class="nodeLabel"><p>rss</p></span></div></foreignObject></g><g class="label attribute-keys" transform="translate(110.8671875, 30.75)" style=""><foreignObject width="0" height="0"><div xmlns="http://www.w3.org/1999/xhtml" style="display: table-cell; white-space: nowrap; line-height: 1.5; max-width: 100px; text-align: start;"><span class="nodeLabel"></span></div></foreignObject></g><g class="label attribute-comment" transform="translate(110.8671875, 30.75)" style=""><foreignObject width="0" height="0"><div xmlns="http://www.w3.org/1999/xhtml" style="display: table-cell; white-space: nowrap; line-height: 1.5; max-width: 100px; text-align: start;"><span class="nodeLabel"></span></div></foreignObject></g><g class="label attribute-type" transform="translate(-85.8671875, 73.5)" style=""><foreignObject width="64.03125" height="24"><div xmlns="http://www.w3.org/1999/xhtml" style="display: table-cell; white-space: nowrap; line-height: 1.5; max-width: 161px; text-align: start;"><span class="nodeLabel"><p>TextField</p></span></div></foreignObject></g><g class="label attribute-name" transform="translate(8.4921875, 73.5)" style=""><foreignObject width="77.375" height="24"><div xmlns="http://www.w3.org/1999/xhtml" style="display: table-cell; white-space: nowrap; line-height: 1.5; max-width: 171px; text-align: start;"><span class="nodeLabel"><p>description</p></span></div></foreignObject></g><g class="label attribute-keys" transform="translate(110.8671875, 73.5)" style=""><foreignObject width="0" height="0"><div xmlns="http://www.w3.org/1999/xhtml" style="display: table-cell; white-space: nowrap; line-height: 1.5; max-width: 100px; text-align: start;"><span class="nodeLabel"></span></div></foreignObject></g><g class="label attribute-comment" transform="translate(110.8671875, 73.5)" style=""><foreignObject width="0" height="0"><div xmlns="http://www.w3.org/1999/xhtml" style="display: table-cell; white-space: nowrap; line-height: 1.5; max-width: 100px; text-align: start;"><span class="nodeLabel"></span></div></foreignObject></g><g class="divider"><path d="M-98.3671875 -64.125 C-33.7614906145688 -64.125, 30.8442062708624 -64.125, 98.3671875 -64.125 M-98.3671875 -64.125 C-47.02155795263333 -64.125, 4.32407159473334 -64.125, 98.3671875 -64.125" stroke="#9370DB" stroke-width="1.3" fill="none" stroke-dasharray="0 0"/></g><g class="divider"><path d="M-4.0078125 -64.125 C-4.0078125 0.5008336683086583, -4.0078125 65.12666733661732, -4.0078125 106.875 M-4.0078125 -64.125 C-4.0078125 -24.029464114737422, -4.0078125 16.066071770525156, -4.0078125 106.875" stroke="#9370DB" stroke-width="1.3" fill="none" stroke-dasharray="0 0"/></g><g class="divider"><path d="M-98.3671875 -64.125 C-26.3010829510893 -64.125, 45.7650215978214 -64.125, 98.3671875 -64.125 M-98.3671875 -64.125 C-54.93457599605606 -64.125, -11.501964492112123 -64.125, 98.3671875 -64.125" stroke="#9370DB" stroke-width="1.3" fill="none" stroke-dasharray="0 0"/></g></g><g class="node default" id="entity-PodcastEpisode-5" transform="translate(940.7421875, 408.25)"><g style=""><path d="M-115.40625 -85.5 L115.40625 -85.5 L115.40625 85.5 L-115.40625 85.5" stroke="none" stroke-width="0" fill="#ECECFF"/><path d="M-115.40625 -85.5 C-25.172075331933925 -85.5, 65.06209933613215 -85.5, 115.40625 -85.5 M-115.40625 -85.5 C-63.014733662402335 -85.5, -10.62321732480467 -85.5, 115.40625 -85.5 M115.40625 -85.5 C115.40625 -34.105005195326434, 115.40625 17.28998960934713, 115.40625 85.5 M115.40625 -85.5 C115.40625 -40.84562558391313, 115.40625 3.808748832173734, 115.40625 85.5 M115.40625 85.5 C51.51808867611542 85.5, -12.370072647769163 85.5, -115.40625 85.5 M115.40625 85.5 C62.0320483551434 85.5, 8.657846710286805 85.5, -115.40625 85.5 M-115.40625 85.5 C-115.40625 25.361786895839167, -115.40625 -34.776426208321666, -115.40625 -85.5 M-115.40625 85.5 C-115.40625 41.6084545755461, -115.40625 -2.283090848907804, -115.40625 -85.5" stroke="#9370DB" stroke-width="1.3" fill="none" stroke-dasharray="0 0"/></g><g style="" class="row-rect-odd"><path d="M-115.40625 -42.75 L115.40625 -42.75 L115.40625 0 L-115.40625 0" stroke="none" stroke-width="0" fill="hsl(240, 100%, 100%)"/><path d="M-115.40625 -42.75 C-37.27610454820841 -42.75, 40.85404090358318 -42.75, 115.40625 -42.75 M-115.40625 -42.75 C-23.686976625066393 -42.75, 68.03229674986721 -42.75, 115.40625 -42.75 M115.40625 -42.75 C115.40625 -30.847030651628536, 115.40625 -18.944061303257072, 115.40625 0 M115.40625 -42.75 C115.40625 -27.555429494922965, 115.40625 -12.36085898984593, 115.40625 0 M115.40625 0 C65.85583981255232 0, 16.305429625104622 0, -115.40625 0 M115.40625 0 C51.112723967153215 0, -13.18080206569357 0, -115.40625 0 M-115.40625 0 C-115.40625 -12.268944016557647, -115.40625 -24.537888033115294, -115.40625 -42.75 M-115.40625 0 C-115.40625 -15.736511720919044, -115.40625 -31.473023441838087, -115.40625 -42.75" stroke="#9370DB" stroke-width="1.3" fill="none" stroke-dasharray="0 0"/></g><g style="" class="row-rect-even"><path d="M-115.40625 0 L115.40625 0 L115.40625 42.75 L-115.40625 42.75" stroke="none" stroke-width="0" fill="hsl(240, 100%, 97.2745098039%)"/><path d="M-115.40625 0 C-55.76944347695126 0, 3.8673630460974806 0, 115.40625 0 M-115.40625 0 C-56.31341979302986 0, 2.7794104139402833 0, 115.40625 0 M115.40625 0 C115.40625 9.857500921098053, 115.40625 19.715001842196106, 115.40625 42.75 M115.40625 0 C115.40625 12.206389504065116, 115.40625 24.412779008130233, 115.40625 42.75 M115.40625 42.75 C25.267823589430577 42.75, -64.87060282113885 42.75, -115.40625 42.75 M115.40625 42.75 C36.629026601432116 42.75, -42.14819679713577 42.75, -115.40625 42.75 M-115.40625 42.75 C-115.40625 31.537970120529064, -115.40625 20.325940241058127, -115.40625 0 M-115.40625 42.75 C-115.40625 25.791919093108675, -115.40625 8.83383818621735, -115.40625 0" stroke="#9370DB" stroke-width="1.3" fill="none" stroke-dasharray="0 0"/></g><g style="" class="row-rect-odd"><path d="M-115.40625 42.75 L115.40625 42.75 L115.40625 85.5 L-115.40625 85.5" stroke="none" stroke-width="0" fill="hsl(240, 100%, 100%)"/><path d="M-115.40625 42.75 C-34.27546866108483 42.75, 46.85531267783034 42.75, 115.40625 42.75 M-115.40625 42.75 C-64.6963547869857 42.75, -13.986459573971402 42.75, 115.40625 42.75 M115.40625 42.75 C115.40625 58.991517498703416, 115.40625 75.23303499740683, 115.40625 85.5 M115.40625 42.75 C115.40625 55.45392019546605, 115.40625 68.1578403909321, 115.40625 85.5 M115.40625 85.5 C28.735070153921626 85.5, -57.93610969215675 85.5, -115.40625 85.5 M115.40625 85.5 C35.328002043687405 85.5, -44.75024591262519 85.5, -115.40625 85.5 M-115.40625 85.5 C-115.40625 70.66130989448146, -115.40625 55.822619788962925, -115.40625 42.75 M-115.40625 85.5 C-115.40625 75.01025358210325, -115.40625 64.5205071642065, -115.40625 42.75" stroke="#9370DB" stroke-width="1.3" fill="none" stroke-dasharray="0 0"/></g><g class="label name" transform="translate(-57.8203125, -76.125)" style=""><foreignObject width="115.640625" height="24"><div xmlns="http://www.w3.org/1999/xhtml" style="display: table-cell; white-space: nowrap; line-height: 1.5; max-width: 201px; text-align: start;"><span class="nodeLabel"><p>PodcastEpisode</p></span></div></foreignObject></g><g class="label attribute-type" transform="translate(-102.90625, -33.375)" style=""><foreignObject width="66.6875" height="24"><div xmlns="http://www.w3.org/1999/xhtml" style="display: table-cell; white-space: nowrap; line-height: 1.5; max-width: 165px; text-align: start;"><span class="nodeLabel"><p>URLField</p></span></div></foreignObject></g><g class="label attribute-name" transform="translate(25.53125, -33.375)" style=""><foreignObject width="17.78125" height="24"><div xmlns="http://www.w3.org/1999/xhtml" style="display: table-cell; white-space: nowrap; line-height: 1.5; max-width: 118px; text-align: start;"><span class="nodeLabel"><p>url</p></span></div></foreignObject></g><g class="label attribute-keys" transform="translate(127.90625, -33.375)" style=""><foreignObject width="0" height="0"><div xmlns="http://www.w3.org/1999/xhtml" style="display: table-cell; white-space: nowrap; line-height: 1.5; max-width: 100px; text-align: start;"><span class="nodeLabel"></span></div></foreignObject></g><g class="label attribute-comment" transform="translate(127.90625, -33.375)" style=""><foreignObject width="0" height="0"><div xmlns="http://www.w3.org/1999/xhtml" style="display: table-cell; white-space: nowrap; line-height: 1.5; max-width: 100px; text-align: start;"><span class="nodeLabel"></span></div></foreignObject></g><g class="label attribute-type" transform="translate(-102.90625, 9.375)" style=""><foreignObject width="103.4375" height="24"><div xmlns="http://www.w3.org/1999/xhtml" style="display: table-cell; white-space: nowrap; line-height: 1.5; max-width: 196px; text-align: start;"><span class="nodeLabel"><p>DateTimeField</p></span></div></foreignObject></g><g class="label attribute-name" transform="translate(25.53125, 9.375)" style=""><foreignObject width="66.734375" height="24"><div xmlns="http://www.w3.org/1999/xhtml" style="display: table-cell; white-space: nowrap; line-height: 1.5; max-width: 159px; text-align: start;"><span class="nodeLabel"><p>pub_date</p></span></div></foreignObject></g><g class="label attribute-keys" transform="translate(127.90625, 9.375)" style=""><foreignObject width="0" height="0"><div xmlns="http://www.w3.org/1999/xhtml" style="display: table-cell; white-space: nowrap; line-height: 1.5; max-width: 100px; text-align: start;"><span class="nodeLabel"></span></div></foreignObject></g><g class="label attribute-comment" transform="translate(127.90625, 9.375)" style=""><foreignObject width="0" height="0"><div xmlns="http://www.w3.org/1999/xhtml" style="display: table-cell; white-space: nowrap; line-height: 1.5; max-width: 100px; text-align: start;"><span class="nodeLabel"></span></div></foreignObject></g><g class="label attribute-type" transform="translate(-102.90625, 52.125)" style=""><foreignObject width="64.03125" height="24"><div xmlns="http://www.w3.org/1999/xhtml" style="display: table-cell; white-space: nowrap; line-height: 1.5; max-width: 161px; text-align: start;"><span class="nodeLabel"><p>TextField</p></span></div></foreignObject></g><g class="label attribute-name" transform="translate(25.53125, 52.125)" style=""><foreignObject width="77.375" height="24"><div xmlns="http://www.w3.org/1999/xhtml" style="display: table-cell; white-space: nowrap; line-height: 1.5; max-width: 171px; text-align: start;"><span class="nodeLabel"><p>description</p></span></div></foreignObject></g><g class="label attribute-keys" transform="translate(127.90625, 52.125)" style=""><foreignObject width="0" height="0"><div xmlns="http://www.w3.org/1999/xhtml" style="display: table-cell; white-space: nowrap; line-height: 1.5; max-width: 100px; text-align: start;"><span class="nodeLabel"></span></div></foreignObject></g><g class="label attribute-comment" transform="translate(127.90625, 52.125)" style=""><foreignObject width="0" height="0"><div xmlns="http://www.w3.org/1999/xhtml" style="display: table-cell; white-space: nowrap; line-height: 1.5; max-width: 100px; text-align: start;"><span class="nodeLabel"></span></div></foreignObject></g><g class="divider"><path d="M-115.40625 -42.75 C-63.26471514455548 -42.75, -11.123180289110962 -42.75, 115.40625 -42.75 M-115.40625 -42.75 C-58.42395294293762 -42.75, -1.4416558858752353 -42.75, 115.40625 -42.75" stroke="#9370DB" stroke-width="1.3" fill="none" stroke-dasharray="0 0"/></g><g class="divider"><path d="M13.03125 -42.75 C13.03125 -15.473737272207423, 13.03125 11.802525455585155, 13.03125 85.5 M13.03125 -42.75 C13.03125 2.2226777926858574, 13.03125 47.195355585371715, 13.03125 85.5" stroke="#9370DB" stroke-width="1.3" fill="none" stroke-dasharray="0 0"/></g><g class="divider"><path d="M-115.40625 -42.75 C-66.49203392918585 -42.75, -17.577817858371688 -42.75, 115.40625 -42.75 M-115.40625 -42.75 C-54.47684500903048 -42.75, 6.4525599819390465 -42.75, 115.40625 -42.75" stroke="#9370DB" stroke-width="1.3" fill="none" stroke-dasharray="0 0"/></g></g><g class="node default" id="entity-Audiobook-6" transform="translate(1087.85546875, 114.875)"><rect class="basic label-container" style="" x="-57.8125" y="-42" width="115.625" height="84"/><g class="label" style="" transform="translate(-37.8125, -12)"><rect/><foreignObject width="75.625" height="24"><div xmlns="http://www.w3.org/1999/xhtml" style="display: table-cell; white-space: nowrap; line-height: 1.5; max-width: 200px; text-align: center;"><span class="nodeLabel"><p>Audiobook</p></span></div></foreignObject></g></g><g class="node default" id="entity-AudiobookChapter-7" transform="translate(1290.0859375, 408.25)"><g style=""><path d="M-93.9375 -42.75 L93.9375 -42.75 L93.9375 42.75 L-93.9375 42.75" stroke="none" stroke-width="0" fill="#ECECFF"/><path d="M-93.9375 -42.75 C-38.83189946547876 -42.75, 16.273701069042474 -42.75, 93.9375 -42.75 M-93.9375 -42.75 C-52.312918055044484 -42.75, -10.688336110088969 -42.75, 93.9375 -42.75 M93.9375 -42.75 C93.9375 -19.97937920435494, 93.9375 2.7912415912901167, 93.9375 42.75 M93.9375 -42.75 C93.9375 -19.26678805261023, 93.9375 4.216423894779538, 93.9375 42.75 M93.9375 42.75 C22.325695736616396 42.75, -49.28610852676721 42.75, -93.9375 42.75 M93.9375 42.75 C35.91796339293593 42.75, -22.101573214128138 42.75, -93.9375 42.75 M-93.9375 42.75 C-93.9375 25.62951229841889, -93.9375 8.509024596837783, -93.9375 -42.75 M-93.9375 42.75 C-93.9375 16.78922968645982, -93.9375 -9.171540627080361, -93.9375 -42.75" stroke="#9370DB" stroke-width="1.3" fill="none" stroke-dasharray="0 0"/></g><g style="" class="row-rect-odd"><path d="M-93.9375 0 L93.9375 0 L93.9375 42.75 L-93.9375 42.75" stroke="none" stroke-width="0" fill="hsl(240, 100%, 100%)"/><path d="M-93.9375 0 C-32.34037382500949 0, 29.256752349981014 0, 93.9375 0 M-93.9375 0 C-54.69649444873858 0, -15.455488897477153 0, 93.9375 0 M93.9375 0 C93.9375 8.738454528577952, 93.9375 17.476909057155904, 93.9375 42.75 M93.9375 0 C93.9375 11.49881438691332, 93.9375 22.99762877382664, 93.9375 42.75 M93.9375 42.75 C28.59847316407918 42.75, -36.74055367184164 42.75, -93.9375 42.75 M93.9375 42.75 C46.33813820882881 42.75, -1.2612235823423816 42.75, -93.9375 42.75 M-93.9375 42.75 C-93.9375 29.139486187146847, -93.9375 15.528972374293694, -93.9375 0 M-93.9375 42.75 C-93.9375 29.224169563522963, -93.9375 15.698339127045926, -93.9375 0" stroke="#9370DB" stroke-width="1.3" fill="none" stroke-dasharray="0 0"/></g><g class="label name" transform="translate(-66.2734375, -33.375)" style=""><foreignObject width="132.546875" height="24"><div xmlns="http://www.w3.org/1999/xhtml" style="display: table-cell; white-space: nowrap; line-height: 1.5; max-width: 223px; text-align: start;"><span class="nodeLabel"><p>AudiobookChapter</p></span></div></foreignObject></g><g class="label attribute-type" transform="translate(-81.4375, 9.375)" style=""><foreignObject width="84.5" height="24"><div xmlns="http://www.w3.org/1999/xhtml" style="display: table-cell; white-space: nowrap; line-height: 1.5; max-width: 178px; text-align: start;"><span class="nodeLabel"><p>IntegerField</p></span></div></foreignObject></g><g class="label attribute-name" transform="translate(28.0625, 9.375)" style=""><foreignObject width="53.375" height="24"><div xmlns="http://www.w3.org/1999/xhtml" style="display: table-cell; white-space: nowrap; line-height: 1.5; max-width: 148px; text-align: start;"><span class="nodeLabel"><p>chapter</p></span></div></foreignObject></g><g class="label attribute-keys" transform="translate(106.4375, 9.375)" style=""><foreignObject width="0" height="0"><div xmlns="http://www.w3.org/1999/xhtml" style="display: table-cell; white-space: nowrap; line-height: 1.5; max-width: 100px; text-align: start;"><span class="nodeLabel"></span></div></foreignObject></g><g class="label attribute-comment" transform="translate(106.4375, 9.375)" style=""><foreignObject width="0" height="0"><div xmlns="http://www.w3.org/1999/xhtml" style="display: table-cell; white-space: nowrap; line-height: 1.5; max-width: 100px; text-align: start;"><span class="nodeLabel"></span></div></foreignObject></g><g class="divider"><path d="M-93.9375 0 C-43.64895177382246 0, 6.639596452355079 0, 93.9375 0 M-93.9375 0 C-25.105327552203207 0, 43.72684489559359 0, 93.9375 0" stroke="#9370DB" stroke-width="1.3" fill="none" stroke-dasharray="0 0"/></g><g class="divider"><path d="M15.5625 0 C15.5625 15.228392817371073, 15.5625 30.456785634742147, 15.5625 42.75 M15.5625 0 C15.5625 15.868865951080261, 15.5625 31.737731902160522, 15.5625 42.75" stroke="#9370DB" stroke-width="1.3" fill="none" stroke-dasharray="0 0"/></g><g class="divider"><path d="M-93.9375 0 C-46.410911006862435 0, 1.1156779862751307 0, 93.9375 0 M-93.9375 0 C-19.06812484804705 0, 55.8012503039059 0, 93.9375 0" stroke="#9370DB" stroke-width="1.3" fill="none" stroke-dasharray="0 0"/></g></g><g class="node default" id="entity-Album-8" transform="translate(1734.78515625, 114.875)"><rect class="basic label-container" style="" x="-50" y="-42" width="100" height="84"/><g class="label" style="" transform="translate(-22.6796875, -12)"><rect/><foreignObject width="45.359375" height="24"><div xmlns="http://www.w3.org/1999/xhtml" style="display: table-cell; white-space: nowrap; line-height: 1.5; max-width: 100px; text-align: center;"><span class="nodeLabel"><p>Album</p></span></div></foreignObject></g></g><g class="node default" id="entity-AlbumTrack-9" transform="translate(1706.296875, 408.25)"><g style=""><path d="M-85.9296875 -42.75 L85.9296875 -42.75 L85.9296875 42.75 L-85.9296875 42.75" stroke="none" stroke-width="0" fill="#ECECFF"/><path d="M-85.9296875 -42.75 C-39.92700747570045 -42.75, 6.075672548599101 -42.75, 85.9296875 -42.75 M-85.9296875 -42.75 C-20.200365779723555 -42.75, 45.52895594055289 -42.75, 85.9296875 -42.75 M85.9296875 -42.75 C85.9296875 -23.818836490145635, 85.9296875 -4.887672980291271, 85.9296875 42.75 M85.9296875 -42.75 C85.9296875 -22.89472142534398, 85.9296875 -3.039442850687962, 85.9296875 42.75 M85.9296875 42.75 C38.70948531120204 42.75, -8.510716877595925 42.75, -85.9296875 42.75 M85.9296875 42.75 C44.454061839103304 42.75, 2.978436178206607 42.75, -85.9296875 42.75 M-85.9296875 42.75 C-85.9296875 14.823493817399616, -85.9296875 -13.103012365200769, -85.9296875 -42.75 M-85.9296875 42.75 C-85.9296875 9.820444631967334, -85.9296875 -23.109110736065333, -85.9296875 -42.75" stroke="#9370DB" stroke-width="1.3" fill="none" stroke-dasharray="0 0"/></g><g style="" class="row-rect-odd"><path d="M-85.9296875 0 L85.9296875 0 L85.9296875 42.75 L-85.9296875 42.75" stroke="none" stroke-width="0" fill="hsl(240, 100%, 100%)"/><path d="M-85.9296875 0 C-41.72282856717608 0, 2.4840303656478397 0, 85.9296875 0 M-85.9296875 0 C-40.969937477967214 0, 3.989812544065572 0, 85.9296875 0 M85.9296875 0 C85.9296875 15.50472779478469, 85.9296875 31.00945558956938, 85.9296875 42.75 M85.9296875 0 C85.9296875 13.101618689699858, 85.9296875 26.203237379399717, 85.9296875 42.75 M85.9296875 42.75 C40.53587876543432 42.75, -4.857929969131362 42.75, -85.9296875 42.75 M85.9296875 42.75 C49.218824844930985 42.75, 12.50796218986197 42.75, -85.9296875 42.75 M-85.9296875 42.75 C-85.9296875 29.236845679436062, -85.9296875 15.723691358872124, -85.9296875 0 M-85.9296875 42.75 C-85.9296875 31.010123426038277, -85.9296875 19.27024685207655, -85.9296875 0" stroke="#9370DB" stroke-width="1.3" fill="none" stroke-dasharray="0 0"/></g><g class="label name" transform="translate(-42.3828125, -33.375)" style=""><foreignObject width="84.765625" height="24"><div xmlns="http://www.w3.org/1999/xhtml" style="display: table-cell; white-space: nowrap; line-height: 1.5; max-width: 181px; text-align: start;"><span class="nodeLabel"><p>AlbumTrack</p></span></div></foreignObject></g><g class="label attribute-type" transform="translate(-73.4296875, 9.375)" style=""><foreignObject width="39.125" height="24"><div xmlns="http://www.w3.org/1999/xhtml" style="display: table-cell; white-space: nowrap; line-height: 1.5; max-width: 136px; text-align: start;"><span class="nodeLabel"><p>string</p></span></div></foreignObject></g><g class="label attribute-name" transform="translate(-9.3046875, 9.375)" style=""><foreignObject width="82.734375" height="24"><div xmlns="http://www.w3.org/1999/xhtml" style="display: table-cell; white-space: nowrap; line-height: 1.5; max-width: 175px; text-align: start;"><span class="nodeLabel"><p>placeholder</p></span></div></foreignObject></g><g class="label attribute-keys" transform="translate(98.4296875, 9.375)" style=""><foreignObject width="0" height="0"><div xmlns="http://www.w3.org/1999/xhtml" style="display: table-cell; white-space: nowrap; line-height: 1.5; max-width: 100px; text-align: start;"><span class="nodeLabel"></span></div></foreignObject></g><g class="label attribute-comment" transform="translate(98.4296875, 9.375)" style=""><foreignObject width="0" height="0"><div xmlns="http://www.w3.org/1999/xhtml" style="display: table-cell; white-space: nowrap; line-height: 1.5; max-width: 100px; text-align: start;"><span class="nodeLabel"></span></div></foreignObject></g><g class="divider"><path d="M-85.9296875 0 C-46.39782892253554 0, -6.8659703450710765 0, 85.9296875 0 M-85.9296875 0 C-21.311115933138126 0, 43.30745563372375 0, 85.9296875 0" stroke="#9370DB" stroke-width="1.3" fill="none" stroke-dasharray="0 0"/></g><g class="divider"><path d="M-21.8046875 0 C-21.8046875 11.810335564866174, -21.8046875 23.620671129732347, -21.8046875 42.75 M-21.8046875 0 C-21.8046875 12.54295682467905, -21.8046875 25.0859136493581, -21.8046875 42.75" stroke="#9370DB" stroke-width="1.3" fill="none" stroke-dasharray="0 0"/></g><g class="divider"><path d="M-85.9296875 0 C-42.2275193243192 0, 1.474648851361593 0, 85.9296875 0 M-85.9296875 0 C-27.61457931321614 0, 30.70052887356772 0, 85.9296875 0" stroke="#9370DB" stroke-width="1.3" fill="none" stroke-dasharray="0 0"/></g></g><g class="node default" id="entity-MediaFile-10" transform="translate(1454.85546875, 114.875)"><g style=""><path d="M-89.9296875 -85.5 L89.9296875 -85.5 L89.9296875 85.5 L-89.9296875 85.5" stroke="none" stroke-width="0" fill="#ECECFF"/><path d="M-89.9296875 -85.5 C-46.83174507022989 -85.5, -3.7338026404597855 -85.5, 89.9296875 -85.5 M-89.9296875 -85.5 C-50.61525909370678 -85.5, -11.300830687413566 -85.5, 89.9296875 -85.5 M89.9296875 -85.5 C89.9296875 -41.12853429773689, 89.9296875 3.2429314045262174, 89.9296875 85.5 M89.9296875 -85.5 C89.9296875 -46.97907661381176, 89.9296875 -8.458153227623527, 89.9296875 85.5 M89.9296875 85.5 C28.68488577570571 85.5, -32.55991594858858 85.5, -89.9296875 85.5 M89.9296875 85.5 C38.41780963393973 85.5, -13.094068232120534 85.5, -89.9296875 85.5 M-89.9296875 85.5 C-89.9296875 21.19081912471927, -89.9296875 -43.11836175056146, -89.9296875 -85.5 M-89.9296875 85.5 C-89.9296875 50.501666155533606, -89.9296875 15.503332311067211, -89.9296875 -85.5" stroke="#9370DB" stroke-width="1.3" fill="none" stroke-dasharray="0 0"/></g><g style="" class="row-rect-odd"><path d="M-89.9296875 -42.75 L89.9296875 -42.75 L89.9296875 0 L-89.9296875 0" stroke="none" stroke-width="0" fill="hsl(240, 100%, 100%)"/><path d="M-89.9296875 -42.75 C-18.142786973227118 -42.75, 53.644113553545765 -42.75, 89.9296875 -42.75 M-89.9296875 -42.75 C-37.986154149776276 -42.75, 13.957379200447448 -42.75, 89.9296875 -42.75 M89.9296875 -42.75 C89.9296875 -31.127381834950988, 89.9296875 -19.504763669901973, 89.9296875 0 M89.9296875 -42.75 C89.9296875 -26.73985430434945, 89.9296875 -10.7297086086989, 89.9296875 0 M89.9296875 0 C27.87746205790227 0, -34.17476338419546 0, -89.9296875 0 M89.9296875 0 C43.38548820492545 0, -3.1587110901490973 0, -89.9296875 0 M-89.9296875 0 C-89.9296875 -17.04071286441549, -89.9296875 -34.08142572883098, -89.9296875 -42.75 M-89.9296875 0 C-89.9296875 -12.930822764400267, -89.9296875 -25.861645528800533, -89.9296875 -42.75" stroke="#9370DB" stroke-width="1.3" fill="none" stroke-dasharray="0 0"/></g><g style="" class="row-rect-even"><path d="M-89.9296875 0 L89.9296875 0 L89.9296875 42.75 L-89.9296875 42.75" stroke="none" stroke-width="0" fill="hsl(240, 100%, 97.2745098039%)"/><path d="M-89.9296875 0 C-18.679197359144496 0, 52.57129278171101 0, 89.9296875 0 M-89.9296875 0 C-23.911491929480675 0, 42.10670364103865 0, 89.9296875 0 M89.9296875 0 C89.9296875 11.225804703728285, 89.9296875 22.45160940745657, 89.9296875 42.75 M89.9296875 0 C89.9296875 13.007171617944556, 89.9296875 26.01434323588911, 89.9296875 42.75 M89.9296875 42.75 C43.47781820741452 42.75, -2.974051085170956 42.75, -89.9296875 42.75 M89.9296875 42.75 C24.89365562622666 42.75, -40.14237624754668 42.75, -89.9296875 42.75 M-89.9296875 42.75 C-89.9296875 32.40540100368949, -89.9296875 22.060802007378978, -89.9296875 0 M-89.9296875 42.75 C-89.9296875 26.122960068644147, -89.9296875 9.495920137288294, -89.9296875 0" stroke="#9370DB" stroke-width="1.3" fill="none" stroke-dasharray="0 0"/></g><g style="" class="row-rect-odd"><path d="M-89.9296875 42.75 L89.9296875 42.75 L89.9296875 85.5 L-89.9296875 85.5" stroke="none" stroke-width="0" fill="hsl(240, 100%, 100%)"/><path d="M-89.9296875 42.75 C-19.17802330222591 42.75, 51.57364089554818 42.75, 89.9296875 42.75 M-89.9296875 42.75 C-48.09391368014633 42.75, -6.258139860292658 42.75, 89.9296875 42.75 M89.9296875 42.75 C89.9296875 58.596331118410276, 89.9296875 74.44266223682055, 89.9296875 85.5 M89.9296875 42.75 C89.9296875 52.65577722973426, 89.9296875 62.561554459468525, 89.9296875 85.5 M89.9296875 85.5 C24.035981703698525 85.5, -41.85772409260295 85.5, -89.9296875 85.5 M89.9296875 85.5 C22.76700945513437 85.5, -44.39566858973126 85.5, -89.9296875 85.5 M-89.9296875 85.5 C-89.9296875 68.91746809299738, -89.9296875 52.33493618599478, -89.9296875 42.75 M-89.9296875 85.5 C-89.9296875 73.45185902025487, -89.9296875 61.40371804050976, -89.9296875 42.75" stroke="#9370DB" stroke-width="1.3" fill="none" stroke-dasharray="0 0"/></g><g class="label name" transform="translate(-34.6796875, -76.125)" style=""><foreignObject width="69.359375" height="24"><div xmlns="http://www.w3.org/1999/xhtml" style="display: table-cell; white-space: nowrap; line-height: 1.5; max-width: 166px; text-align: start;"><span class="nodeLabel"><p>MediaFile</p></span></div></foreignObject></g><g class="label attribute-type" transform="translate(-77.4296875, -33.375)" style=""><foreignObject width="69.359375" height="24"><div xmlns="http://www.w3.org/1999/xhtml" style="display: table-cell; white-space: nowrap; line-height: 1.5; max-width: 164px; text-align: start;"><span class="nodeLabel"><p>CharField</p></span></div></foreignObject></g><g class="label attribute-name" transform="translate(16.9296875, -33.375)" style=""><foreignObject width="24.90625" height="24"><div xmlns="http://www.w3.org/1999/xhtml" style="display: table-cell; white-space: nowrap; line-height: 1.5; max-width: 125px; text-align: start;"><span class="nodeLabel"><p>title</p></span></div></foreignObject></g><g class="label attribute-keys" transform="translate(102.4296875, -33.375)" style=""><foreignObject width="0" height="0"><div xmlns="http://www.w3.org/1999/xhtml" style="display: table-cell; white-space: nowrap; line-height: 1.5; max-width: 100px; text-align: start;"><span class="nodeLabel"></span></div></foreignObject></g><g class="label attribute-comment" transform="translate(102.4296875, -33.375)" style=""><foreignObject width="0" height="0"><div xmlns="http://www.w3.org/1999/xhtml" style="display: table-cell; white-space: nowrap; line-height: 1.5; max-width: 100px; text-align: start;"><span class="nodeLabel"></span></div></foreignObject></g><g class="label attribute-type" transform="translate(-77.4296875, 9.375)" style=""><foreignObject width="69.359375" height="24"><div xmlns="http://www.w3.org/1999/xhtml" style="display: table-cell; white-space: nowrap; line-height: 1.5; max-width: 164px; text-align: start;"><span class="nodeLabel"><p>CharField</p></span></div></foreignObject></g><g class="label attribute-name" transform="translate(16.9296875, 9.375)" style=""><foreignObject width="60.5" height="24"><div xmlns="http://www.w3.org/1999/xhtml" style="display: table-cell; white-space: nowrap; line-height: 1.5; max-width: 157px; text-align: start;"><span class="nodeLabel"><p>file_path</p></span></div></foreignObject></g><g class="label attribute-keys" transform="translate(102.4296875, 9.375)" style=""><foreignObject width="0" height="0"><div xmlns="http://www.w3.org/1999/xhtml" style="display: table-cell; white-space: nowrap; line-height: 1.5; max-width: 100px; text-align: start;"><span class="nodeLabel"></span></div></foreignObject></g><g class="label attribute-comment" transform="translate(102.4296875, 9.375)" style=""><foreignObject width="0" height="0"><div xmlns="http://www.w3.org/1999/xhtml" style="display: table-cell; white-space: nowrap; line-height: 1.5; max-width: 100px; text-align: start;"><span class="nodeLabel"></span></div></foreignObject></g><g class="label attribute-type" transform="translate(-77.4296875, 52.125)" style=""><foreignObject width="69.359375" height="24"><div xmlns="http://www.w3.org/1999/xhtml" style="display: table-cell; white-space: nowrap; line-height: 1.5; max-width: 164px; text-align: start;"><span class="nodeLabel"><p>CharField</p></span></div></foreignObject></g><g class="label attribute-name" transform="translate(16.9296875, 52.125)" style=""><foreignObject width="30.25" height="24"><div xmlns="http://www.w3.org/1999/xhtml" style="display: table-cell; white-space: nowrap; line-height: 1.5; max-width: 128px; text-align: start;"><span class="nodeLabel"><p>type</p></span></div></foreignObject></g><g class="label attribute-keys" transform="translate(102.4296875, 52.125)" style=""><foreignObject width="0" height="0"><div xmlns="http://www.w3.org/1999/xhtml" style="display: table-cell; white-space: nowrap; line-height: 1.5; max-width: 100px; text-align: start;"><span class="nodeLabel"></span></div></foreignObject></g><g class="label attribute-comment" transform="translate(102.4296875, 52.125)" style=""><foreignObject width="0" height="0"><div xmlns="http://www.w3.org/1999/xhtml" style="display: table-cell; white-space: nowrap; line-height: 1.5; max-width: 100px; text-align: start;"><span class="nodeLabel"></span></div></foreignObject></g><g class="divider"><path d="M-89.9296875 -42.75 C-48.60746946001656 -42.75, -7.28525142003312 -42.75, 89.9296875 -42.75 M-89.9296875 -42.75 C-40.27040430919257 -42.75, 9.388878881614858 -42.75, 89.9296875 -42.75" stroke="#9370DB" stroke-width="1.3" fill="none" stroke-dasharray="0 0"/></g><g class="divider"><path d="M4.4296875 -42.75 C4.4296875 -15.78181247519835, 4.4296875 11.1863750496033, 4.4296875 85.5 M4.4296875 -42.75 C4.4296875 -8.035773118402545, 4.4296875 26.67845376319491, 4.4296875 85.5" stroke="#9370DB" stroke-width="1.3" fill="none" stroke-dasharray="0 0"/></g><g class="divider"><path d="M-89.9296875 -42.75 C-36.777528760627824 -42.75, 16.374629978744352 -42.75, 89.9296875 -42.75 M-89.9296875 -42.75 C-49.608557381716416 -42.75, -9.287427263432832 -42.75, 89.9296875 -42.75" stroke="#9370DB" stroke-width="1.3" fill="none" stroke-dasharray="0 0"/></g></g></g></g></g></svg>