<?xml version="1.0" encoding="UTF-8" standalone="no"?>
<!DOCTYPE svg PUBLIC "-//W3C//DTD SVG 1.1//EN"
 "http://www.w3.org/Graphics/SVG/1.1/DTD/svg11.dtd">
<!-- Generated by graphviz version 2.43.0 (0)
 -->
<!-- Title: erd Pages: 1 -->
<svg width="921pt" height="443pt"
 viewBox="0.00 0.00 921.13 443.00" xmlns="http://www.w3.org/2000/svg" xmlns:xlink="http://www.w3.org/1999/xlink">
<g id="graph0" class="graph" transform="scale(1 1) rotate(0) translate(36 407)">
<title>erd</title>
<polygon fill="white" stroke="transparent" points="-36,36 -36,-407 885.13,-407 885.13,36 -36,36"/>
<text text-anchor="middle" x="424.56" y="-355.8" font-family="Times,serif" font-size="14.00">H5Media ER Diagram</text>
<!-- User -->
<g id="node1" class="node">
<title>User</title>
<polygon fill="lightblue" stroke="transparent" points="99,-319 99,-340 142,-340 142,-319 99,-319"/>
<polygon fill="none" stroke="black" points="99,-319 99,-340 142,-340 142,-319 99,-319"/>
<text text-anchor="start" x="102" y="-326.8" font-family="Times,serif" font-weight="bold" font-size="14.00">User</text>
</g>
<!-- Profile -->
<g id="node2" class="node">
<title>Profile</title>
<polygon fill="lightblue" stroke="transparent" points="142,-208.5 142,-229.5 236,-229.5 236,-208.5 142,-208.5"/>
<polygon fill="none" stroke="black" points="142,-208.5 142,-229.5 236,-229.5 236,-208.5 142,-208.5"/>
<text text-anchor="start" x="163" y="-216.3" font-family="Times,serif" font-weight="bold" font-size="14.00">Profile</text>
<polygon fill="none" stroke="black" points="142,-187.5 142,-208.5 236,-208.5 236,-187.5 142,-187.5"/>
<text text-anchor="start" x="145" y="-194.3" font-family="Times,serif" font-size="14.00">user_id (FK)</text>
</g>
<!-- User&#45;&gt;Profile -->
<g id="edge1" class="edge">
<title>User&#45;&gt;Profile:user</title>
<path fill="none" stroke="black" d="M126.18,-311.74C127.98,-306.14 129.79,-299.86 131,-294 135.37,-272.89 119.44,-197.5 141,-197.5"/>
<text text-anchor="middle" x="143.5" y="-282.8" font-family="Times,serif" font-size="14.00">1:1</text>
</g>
<!-- PlayList -->
<g id="node5" class="node">
<title>PlayList</title>
<polygon fill="lightblue" stroke="transparent" points="0,-218.5 0,-239.5 106,-239.5 106,-218.5 0,-218.5"/>
<polygon fill="none" stroke="black" points="0,-218.5 0,-239.5 106,-239.5 106,-218.5 0,-218.5"/>
<text text-anchor="start" x="21" y="-226.3" font-family="Times,serif" font-weight="bold" font-size="14.00">PlayList</text>
<polygon fill="none" stroke="black" points="0,-197.5 0,-218.5 106,-218.5 106,-197.5 0,-197.5"/>
<text text-anchor="start" x="38" y="-204.3" font-family="Times,serif" font-size="14.00">title</text>
<polygon fill="none" stroke="black" points="0,-176.5 0,-197.5 106,-197.5 106,-176.5 0,-176.5"/>
<text text-anchor="start" x="3" y="-183.3" font-family="Times,serif" font-size="14.00">owner_id (FK)</text>
</g>
<!-- User&#45;&gt;PlayList -->
<g id="edge4" class="edge">
<title>User&#45;&gt;PlayList:owner</title>
<path fill="none" stroke="black" d="M107.93,-311.97C104.7,-306.49 101.65,-300.22 100,-294 94.72,-274.12 121.36,-209.02 113.77,-191.1"/>
<polygon fill="black" stroke="black" points="113.62,-191 109.02,-183.52 110.31,-188.75 107,-186.5 107,-186.5 107,-186.5 110.31,-188.75 104.98,-189.48 113.62,-191 113.62,-191"/>
<text text-anchor="middle" x="113" y="-282.8" font-family="Times,serif" font-size="14.00">1:N</text>
</g>
<!-- ProfileQueue -->
<g id="node4" class="node">
<title>ProfileQueue</title>
<polygon fill="lightblue" stroke="transparent" points="202,-62.5 202,-83.5 336,-83.5 336,-62.5 202,-62.5"/>
<polygon fill="none" stroke="black" points="202,-62.5 202,-83.5 336,-83.5 336,-62.5 202,-62.5"/>
<text text-anchor="start" x="217.5" y="-70.3" font-family="Times,serif" font-weight="bold" font-size="14.00">ProfileQueue</text>
<polygon fill="none" stroke="black" points="202,-41.5 202,-62.5 336,-62.5 336,-41.5 202,-41.5"/>
<text text-anchor="start" x="218" y="-48.3" font-family="Times,serif" font-size="14.00">profile_id (FK)</text>
<polygon fill="none" stroke="black" points="202,-20.5 202,-41.5 336,-41.5 336,-20.5 202,-20.5"/>
<text text-anchor="start" x="205" y="-27.3" font-family="Times,serif" font-size="14.00">media_file_id (FK)</text>
</g>
<!-- Profile&#45;&gt;ProfileQueue -->
<g id="edge2" class="edge">
<title>Profile:profile&#45;&gt;ProfileQueue:profile</title>
<path fill="none" stroke="black" d="M189,-230.5C189,-240.95 228.69,-236.97 236,-229.5 249.06,-216.16 243.36,-204.66 236,-187.5 223.43,-158.17 196.57,-167.33 184,-138 178.07,-124.18 179.13,-69.28 193.46,-54.94"/>
<polygon fill="black" stroke="black" points="193.72,-54.82 202.49,-54.78 197.36,-53.16 201,-51.5 201,-51.5 201,-51.5 197.36,-53.16 199.51,-48.22 193.72,-54.82 193.72,-54.82"/>
<text text-anchor="middle" x="197" y="-126.8" font-family="Times,serif" font-size="14.00">1:N</text>
</g>
<!-- MediaFile -->
<g id="node3" class="node">
<title>MediaFile</title>
<polygon fill="lightblue" stroke="transparent" points="347,-229.5 347,-250.5 432,-250.5 432,-229.5 347,-229.5"/>
<polygon fill="none" stroke="black" points="347,-229.5 347,-250.5 432,-250.5 432,-229.5 347,-229.5"/>
<text text-anchor="start" x="350" y="-237.3" font-family="Times,serif" font-weight="bold" font-size="14.00">MediaFile</text>
<polygon fill="none" stroke="black" points="347,-208.5 347,-229.5 432,-229.5 432,-208.5 347,-208.5"/>
<text text-anchor="start" x="374.5" y="-215.3" font-family="Times,serif" font-size="14.00">title</text>
<polygon fill="none" stroke="black" points="347,-187.5 347,-208.5 432,-208.5 432,-187.5 347,-187.5"/>
<text text-anchor="start" x="359" y="-194.3" font-family="Times,serif" font-size="14.00">file_path</text>
<polygon fill="none" stroke="black" points="347,-166.5 347,-187.5 432,-187.5 432,-166.5 347,-166.5"/>
<text text-anchor="start" x="373.5" y="-173.3" font-family="Times,serif" font-size="14.00">type</text>
</g>
<!-- MediaFile&#45;&gt;ProfileQueue -->
<g id="edge3" class="edge">
<title>MediaFile&#45;&gt;ProfileQueue:media_file</title>
<path fill="none" stroke="black" d="M360.02,-166.34C354.89,-157.36 350.18,-147.64 347,-138 340.49,-118.24 355.79,-51.91 344.33,-34.64"/>
<polygon fill="black" stroke="black" points="343.97,-34.44 338.77,-27.37 340.48,-32.47 337,-30.5 337,-30.5 337,-30.5 340.48,-32.47 335.23,-33.63 343.97,-34.44 343.97,-34.44"/>
<text text-anchor="middle" x="360" y="-126.8" font-family="Times,serif" font-size="14.00">1:N</text>
</g>
<!-- PlayListItem -->
<g id="node6" class="node">
<title>PlayListItem</title>
<polygon fill="lightblue" stroke="transparent" points="25,-73.5 25,-94.5 159,-94.5 159,-73.5 25,-73.5"/>
<polygon fill="none" stroke="black" points="25,-73.5 25,-94.5 159,-94.5 159,-73.5 25,-73.5"/>
<text text-anchor="start" x="41.5" y="-81.3" font-family="Times,serif" font-weight="bold" font-size="14.00">PlayListItem</text>
<polygon fill="none" stroke="black" points="25,-52.5 25,-73.5 159,-73.5 159,-52.5 25,-52.5"/>
<text text-anchor="start" x="37.5" y="-59.3" font-family="Times,serif" font-size="14.00">playlist_id (FK)</text>
<polygon fill="none" stroke="black" points="25,-31.5 25,-52.5 159,-52.5 159,-31.5 25,-31.5"/>
<text text-anchor="start" x="28" y="-38.3" font-family="Times,serif" font-size="14.00">media_file_id (FK)</text>
<polygon fill="none" stroke="black" points="25,-10.5 25,-31.5 159,-31.5 159,-10.5 25,-10.5"/>
<text text-anchor="start" x="44.5" y="-17.3" font-family="Times,serif" font-size="14.00">item_number</text>
</g>
<!-- MediaFile&#45;&gt;PlayListItem -->
<g id="edge6" class="edge">
<title>MediaFile&#45;&gt;PlayListItem:media_file</title>
<path fill="none" stroke="black" d="M346.14,-187.05C287.81,-159.09 189.97,-111.61 184,-105 166,-85.05 184.96,-50.27 168,-42.9"/>
<polygon fill="black" stroke="black" points="167.88,-42.88 160.62,-37.95 163.94,-42.19 160,-41.5 160,-41.5 160,-41.5 163.94,-42.19 159.38,-45.05 167.88,-42.88 167.88,-42.88"/>
<text text-anchor="middle" x="254" y="-126.8" font-family="Times,serif" font-size="14.00">1:N</text>
</g>
<!-- PodcastEpisode -->
<g id="node8" class="node">
<title>PodcastEpisode</title>
<polygon fill="lightblue" stroke="transparent" points="375,-83.5 375,-104.5 505,-104.5 505,-83.5 375,-83.5"/>
<polygon fill="none" stroke="black" points="375,-83.5 375,-104.5 505,-104.5 505,-83.5 375,-83.5"/>
<text text-anchor="start" x="378" y="-91.3" font-family="Times,serif" font-weight="bold" font-size="14.00">PodcastEpisode</text>
<polygon fill="none" stroke="black" points="375,-62.5 375,-83.5 505,-83.5 505,-62.5 375,-62.5"/>
<text text-anchor="start" x="384" y="-69.3" font-family="Times,serif" font-size="14.00">podcast_id (FK)</text>
<polygon fill="none" stroke="black" points="375,-41.5 375,-62.5 505,-62.5 505,-41.5 375,-41.5"/>
<text text-anchor="start" x="429.5" y="-48.3" font-family="Times,serif" font-size="14.00">url</text>
<polygon fill="none" stroke="black" points="375,-20.5 375,-41.5 505,-41.5 505,-20.5 375,-20.5"/>
<text text-anchor="start" x="407" y="-27.3" font-family="Times,serif" font-size="14.00">pub_date</text>
<polygon fill="none" stroke="black" points="375,0.5 375,-20.5 505,-20.5 505,0.5 375,0.5"/>
<text text-anchor="start" x="399.5" y="-6.3" font-family="Times,serif" font-size="14.00">description</text>
</g>
<!-- MediaFile&#45;&gt;PodcastEpisode -->
<g id="edge10" class="edge">
<title>MediaFile&#45;&gt;PodcastEpisode</title>
<path fill="none" stroke="gray" d="M380.91,-166.2C379.75,-152.16 380.27,-136.59 385,-123 386.26,-119.38 387.8,-115.8 389.54,-112.29"/>
<polygon fill="none" stroke="gray" points="392.04,-113.57 393.41,-105.21 387.12,-110.89 392.04,-113.57"/>
<text text-anchor="middle" x="397.5" y="-126.8" font-family="Times,serif" font-size="14.00" fill="gray">is a</text>
</g>
<!-- AudiobookChapter -->
<g id="node10" class="node">
<title>AudiobookChapter</title>
<polygon fill="lightblue" stroke="transparent" points="687,-62.5 687,-83.5 840,-83.5 840,-62.5 687,-62.5"/>
<polygon fill="none" stroke="black" points="687,-62.5 687,-83.5 840,-83.5 840,-62.5 687,-62.5"/>
<text text-anchor="start" x="690" y="-70.3" font-family="Times,serif" font-weight="bold" font-size="14.00">AudiobookChapter</text>
<polygon fill="none" stroke="black" points="687,-41.5 687,-62.5 840,-62.5 840,-41.5 687,-41.5"/>
<text text-anchor="start" x="699" y="-48.3" font-family="Times,serif" font-size="14.00">audiobook_id (FK)</text>
<polygon fill="none" stroke="black" points="687,-20.5 687,-41.5 840,-41.5 840,-20.5 687,-20.5"/>
<text text-anchor="start" x="736" y="-27.3" font-family="Times,serif" font-size="14.00">chapter</text>
</g>
<!-- MediaFile&#45;&gt;AudiobookChapter -->
<g id="edge11" class="edge">
<title>MediaFile&#45;&gt;AudiobookChapter</title>
<path fill="none" stroke="gray" d="M431.63,-171.69C440.28,-165.74 449.62,-160.15 459,-156 495.9,-139.66 508.75,-147.4 548,-138 601.38,-125.22 616.06,-125.43 667,-105 679.14,-100.13 691.72,-94.14 703.63,-87.98"/>
<polygon fill="none" stroke="gray" points="705.17,-90.33 710.94,-84.13 702.56,-85.38 705.17,-90.33"/>
<text text-anchor="middle" x="625.5" y="-126.8" font-family="Times,serif" font-size="14.00" fill="gray">is a</text>
</g>
<!-- AlbumTrack -->
<g id="node12" class="node">
<title>AlbumTrack</title>
<polygon fill="lightblue" stroke="transparent" points="543,-73.5 543,-94.5 649,-94.5 649,-73.5 543,-73.5"/>
<polygon fill="none" stroke="black" points="543,-73.5 543,-94.5 649,-94.5 649,-73.5 543,-73.5"/>
<text text-anchor="start" x="548" y="-81.3" font-family="Times,serif" font-weight="bold" font-size="14.00">AlbumTrack</text>
<polygon fill="none" stroke="black" points="543,-52.5 543,-73.5 649,-73.5 649,-52.5 543,-52.5"/>
<text text-anchor="start" x="546" y="-59.3" font-family="Times,serif" font-size="14.00">album_id (FK)</text>
<polygon fill="none" stroke="black" points="543,-31.5 543,-52.5 649,-52.5 649,-31.5 543,-31.5"/>
<text text-anchor="start" x="581.5" y="-38.3" font-family="Times,serif" font-size="14.00">disc</text>
<polygon fill="none" stroke="black" points="543,-10.5 543,-31.5 649,-31.5 649,-10.5 543,-10.5"/>
<text text-anchor="start" x="577.5" y="-17.3" font-family="Times,serif" font-size="14.00">track</text>
</g>
<!-- MediaFile&#45;&gt;AlbumTrack -->
<g id="edge12" class="edge">
<title>MediaFile&#45;&gt;AlbumTrack</title>
<path fill="none" stroke="gray" d="M427.75,-166.46C443.32,-151.49 462.06,-135.25 481,-123 498.05,-111.97 505.27,-114.91 523,-105 527.16,-102.67 531.38,-100.16 535.58,-97.55"/>
<polygon fill="none" stroke="gray" points="537.37,-99.72 542.61,-93.05 534.36,-95 537.37,-99.72"/>
<text text-anchor="middle" x="493.5" y="-126.8" font-family="Times,serif" font-size="14.00" fill="gray">is a</text>
</g>
<!-- PlayList&#45;&gt;PlayListItem -->
<g id="edge5" class="edge">
<title>PlayList:playlist&#45;&gt;PlayListItem:playlist</title>
<path fill="none" stroke="black" d="M107,-229.5C130.34,-229.5 115.04,-198.52 106,-177 86.1,-129.62 45.21,-141.74 25,-94.5 21.19,-85.59 15.43,-73.88 17.13,-67.72"/>
<polygon fill="black" stroke="black" points="17.18,-67.69 25.88,-66.57 20.59,-65.59 24,-63.5 24,-63.5 24,-63.5 20.59,-65.59 22.12,-60.43 17.18,-67.69 17.18,-67.69"/>
<text text-anchor="middle" x="83" y="-126.8" font-family="Times,serif" font-size="14.00">1:N</text>
</g>
<!-- Podcast -->
<g id="node7" class="node">
<title>Podcast</title>
<polygon fill="lightblue" stroke="transparent" points="478,-239.5 478,-260.5 565,-260.5 565,-239.5 478,-239.5"/>
<polygon fill="none" stroke="black" points="478,-239.5 478,-260.5 565,-260.5 565,-239.5 478,-239.5"/>
<text text-anchor="start" x="490.5" y="-247.3" font-family="Times,serif" font-weight="bold" font-size="14.00">Podcast</text>
<polygon fill="none" stroke="black" points="478,-218.5 478,-239.5 565,-239.5 565,-218.5 478,-218.5"/>
<text text-anchor="start" x="506.5" y="-225.3" font-family="Times,serif" font-size="14.00">title</text>
<polygon fill="none" stroke="black" points="478,-197.5 478,-218.5 565,-218.5 565,-197.5 478,-197.5"/>
<text text-anchor="start" x="493.5" y="-204.3" font-family="Times,serif" font-size="14.00">website</text>
<polygon fill="none" stroke="black" points="478,-176.5 478,-197.5 565,-197.5 565,-176.5 478,-176.5"/>
<text text-anchor="start" x="510.5" y="-183.3" font-family="Times,serif" font-size="14.00">rss</text>
<polygon fill="none" stroke="black" points="478,-155.5 478,-176.5 565,-176.5 565,-155.5 478,-155.5"/>
<text text-anchor="start" x="481" y="-162.3" font-family="Times,serif" font-size="14.00">description</text>
</g>
<!-- Podcast&#45;&gt;PodcastEpisode -->
<g id="edge7" class="edge">
<title>Podcast&#45;&gt;PodcastEpisode:podcast</title>
<path fill="none" stroke="black" d="M517.53,-155.69C515.36,-127.41 512.39,-95.32 509.22,-81.04"/>
<polygon fill="black" stroke="black" points="509.14,-80.86 509.31,-72.09 507.57,-77.18 506,-73.5 506,-73.5 506,-73.5 507.57,-77.18 502.69,-74.91 509.14,-80.86 509.14,-80.86"/>
<text text-anchor="middle" x="529" y="-126.8" font-family="Times,serif" font-size="14.00">1:N</text>
</g>
<!-- Audiobook -->
<g id="node9" class="node">
<title>Audiobook</title>
<polygon fill="lightblue" stroke="transparent" points="720,-208.5 720,-229.5 809,-229.5 809,-208.5 720,-208.5"/>
<polygon fill="none" stroke="black" points="720,-208.5 720,-229.5 809,-229.5 809,-208.5 720,-208.5"/>
<text text-anchor="start" x="723" y="-216.3" font-family="Times,serif" font-weight="bold" font-size="14.00">Audiobook</text>
<polygon fill="none" stroke="black" points="720,-187.5 720,-208.5 809,-208.5 809,-187.5 720,-187.5"/>
<text text-anchor="start" x="749.5" y="-194.3" font-family="Times,serif" font-size="14.00">title</text>
</g>
<!-- Audiobook&#45;&gt;AudiobookChapter -->
<g id="edge8" class="edge">
<title>Audiobook&#45;&gt;AudiobookChapter:audiobook</title>
<path fill="none" stroke="black" d="M778.45,-187.43C804.46,-150.56 855.79,-74.14 848.14,-55.61"/>
<polygon fill="black" stroke="black" points="847.93,-55.49 842.8,-48.38 844.47,-53.5 841,-51.5 841,-51.5 841,-51.5 844.47,-53.5 839.2,-54.62 847.93,-55.49 847.93,-55.49"/>
<text text-anchor="middle" x="832" y="-126.8" font-family="Times,serif" font-size="14.00">1:N</text>
</g>
<!-- Album -->
<g id="node11" class="node">
<title>Album</title>
<polygon fill="lightblue" stroke="transparent" points="625,-208.5 625,-229.5 683,-229.5 683,-208.5 625,-208.5"/>
<polygon fill="none" stroke="black" points="625,-208.5 625,-229.5 683,-229.5 683,-208.5 625,-208.5"/>
<text text-anchor="start" x="628" y="-216.3" font-family="Times,serif" font-weight="bold" font-size="14.00">Album</text>
<polygon fill="none" stroke="black" points="625,-187.5 625,-208.5 683,-208.5 683,-187.5 625,-187.5"/>
<text text-anchor="start" x="639" y="-194.3" font-family="Times,serif" font-size="14.00">title</text>
</g>
<!-- Album&#45;&gt;AlbumTrack -->
<g id="edge9" class="edge">
<title>Album&#45;&gt;AlbumTrack:album</title>
<path fill="none" stroke="black" d="M657.48,-187.48C663.04,-152.86 671.91,-83.9 657.62,-67.2"/>
<polygon fill="black" stroke="black" points="657.19,-67 651.57,-60.26 653.6,-65.25 650,-63.5 650,-63.5 650,-63.5 653.6,-65.25 648.43,-66.74 657.19,-67 657.19,-67"/>
<text text-anchor="middle" x="677" y="-126.8" font-family="Times,serif" font-size="14.00">1:N</text>
</g>
</g>
</svg>
