<?xml version="1.0" encoding="UTF-8" standalone="no"?>
<!DOCTYPE svg PUBLIC "-//W3C//DTD SVG 1.1//EN"
 "http://www.w3.org/Graphics/SVG/1.1/DTD/svg11.dtd">
<!-- Generated by graphviz version 2.43.0 (0)
 -->
<!-- Title: H5MediaTemplates Pages: 1 -->
<svg width="368pt" height="285pt"
 viewBox="0.00 0.00 368.00 285.00" xmlns="http://www.w3.org/2000/svg" xmlns:xlink="http://www.w3.org/1999/xlink">
<g id="graph0" class="graph" transform="scale(1 1) rotate(0) translate(4 281)">
<title>H5MediaTemplates</title>
<polygon fill="white" stroke="transparent" points="-4,4 -4,-281 364,-281 364,4 -4,4"/>
<text text-anchor="middle" x="180" y="-7.8" font-family="Times,serif" font-size="14.00">H5Media Templates</text>
<g id="clust1" class="cluster">
<title>cluster_h5media</title>
<polygon fill="none" stroke="black" points="75,-194 75,-269 285,-269 285,-194 75,-194"/>
<text text-anchor="middle" x="180" y="-253.8" font-family="Times,serif" font-size="14.00">H5Media</text>
</g>
<g id="clust2" class="cluster">
<title>cluster_mobile</title>
<polygon fill="none" stroke="black" points="8,-31 8,-186 352,-186 352,-31 8,-31"/>
<text text-anchor="middle" x="180" y="-170.8" font-family="Times,serif" font-size="14.00">mobile</text>
</g>
<!-- mobile/css_and_javascript.html -->
<g id="node1" class="node">
<title>mobile/css_and_javascript.html</title>
<polygon fill="lightblue" stroke="transparent" points="84,-212 84,-233 277,-233 277,-212 84,-212"/>
<polygon fill="none" stroke="black" points="84,-212 84,-233 277,-233 277,-212 84,-212"/>
<text text-anchor="start" x="87" y="-219.8" font-family="Times,serif" font-weight="bold" font-size="14.00">css_and_javascript.html</text>
<polygon fill="none" stroke="black" points="84,-206 84,-212 277,-212 277,-206 84,-206"/>
<polygon fill="none" stroke="black" points="82.5,-205.5 82.5,-234.5 277.5,-234.5 277.5,-205.5 82.5,-205.5"/>
</g>
<!-- mobile/base.html -->
<g id="node2" class="node">
<title>mobile/base.html</title>
<polygon fill="lightblue" stroke="transparent" points="138,-129 138,-150 223,-150 223,-129 138,-129"/>
<polygon fill="none" stroke="black" points="138,-129 138,-150 223,-150 223,-129 138,-129"/>
<text text-anchor="start" x="141" y="-136.8" font-family="Times,serif" font-weight="bold" font-size="14.00">base.html</text>
<polygon fill="none" stroke="black" points="138,-123 138,-129 223,-129 223,-123 138,-123"/>
<polygon fill="none" stroke="black" points="136.5,-122.5 136.5,-151.5 223.5,-151.5 223.5,-122.5 136.5,-122.5"/>
</g>
<!-- mobile/css_and_javascript.html&#45;&gt;mobile/base.html -->
<g id="edge2" class="edge">
<title>mobile/css_and_javascript.html&#45;&gt;mobile/base.html</title>
<path fill="none" stroke="black" d="M180,-201.82C180,-191.19 180,-177.31 180,-165.2"/>
<polygon fill="black" stroke="black" points="183.5,-165.15 180,-155.15 176.5,-165.15 183.5,-165.15"/>
</g>
<!-- mobile/home.html -->
<g id="node3" class="node">
<title>mobile/home.html</title>
<polygon fill="lightblue" stroke="transparent" points="17,-61 17,-82 343,-82 343,-61 17,-61"/>
<polygon fill="none" stroke="black" points="17,-61 17,-82 343,-82 343,-61 17,-61"/>
<text text-anchor="start" x="137" y="-68.8" font-family="Times,serif" font-weight="bold" font-size="14.00">home.html</text>
<polygon fill="none" stroke="black" points="17,-40 17,-61 343,-61 343,-40 17,-40"/>
<text text-anchor="start" x="20" y="-46.8" font-family="Times,serif" font-size="14.00">Renders currently playing file and the queue</text>
<polygon fill="none" stroke="black" points="16,-39 16,-83 344,-83 344,-39 16,-39"/>
</g>
<!-- mobile/base.html&#45;&gt;mobile/home.html -->
<g id="edge1" class="edge">
<title>mobile/base.html&#45;&gt;mobile/home.html</title>
<path fill="none" stroke="black" d="M180,-118.84C180,-111.16 180,-101.88 180,-93.05"/>
<polygon fill="black" stroke="black" points="183.5,-93.03 180,-83.03 176.5,-93.03 183.5,-93.03"/>
</g>
</g>
</svg>
