<?xml version="1.0" encoding="UTF-8" standalone="no"?>
<!DOCTYPE svg PUBLIC "-//W3C//DTD SVG 1.1//EN"
 "http://www.w3.org/Graphics/SVG/1.1/DTD/svg11.dtd">
<!-- Generated by graphviz version 2.43.0 (0)
 -->
<!-- Title: view_classes Pages: 1 -->
<svg width="562pt" height="276pt"
 viewBox="0.00 0.00 561.50 276.00" xmlns="http://www.w3.org/2000/svg" xmlns:xlink="http://www.w3.org/1999/xlink">
<g id="graph0" class="graph" transform="scale(1 1) rotate(0) translate(4 272)">
<title>view_classes</title>
<polygon fill="white" stroke="transparent" points="-4,4 -4,-272 557.5,-272 557.5,4 -4,4"/>
<text text-anchor="middle" x="276.75" y="-7.8" font-family="Times,serif" font-size="14.00">H5Media Base View Classes</text>
<!-- LoginRequiredMixin -->
<g id="node1" class="node">
<title>LoginRequiredMixin</title>
<polygon fill="none" stroke="black" points="297.5,-261 135.5,-261 135.5,-225 297.5,-225 297.5,-261"/>
<text text-anchor="middle" x="216.5" y="-239.3" font-family="Times,serif" font-size="14.00">LoginRequiredMixin</text>
</g>
<!-- BaseView -->
<g id="node5" class="node">
<title>BaseView</title>
<polygon fill="none" stroke="black" points="147.5,-158 147.5,-179 286.5,-179 286.5,-158 147.5,-158"/>
<text text-anchor="start" x="182" y="-164.8" font-family="Times,serif" font-size="14.00">BaseView</text>
<polygon fill="none" stroke="black" points="147.5,-135 147.5,-156 286.5,-156 286.5,-135 147.5,-135"/>
<text text-anchor="start" x="150.5" y="-141.8" font-family="Times,serif" font-size="14.00">get_context_data()</text>
<polygon fill="none" stroke="black" points="144,-132 144,-182 289,-182 289,-132 144,-132"/>
</g>
<!-- LoginRequiredMixin&#45;&gt;BaseView -->
<g id="edge1" class="edge">
<title>LoginRequiredMixin&#45;&gt;BaseView</title>
<path fill="none" stroke="black" d="M216.5,-214.76C216.5,-214.76 216.5,-182.06 216.5,-182.06"/>
<polygon fill="none" stroke="black" points="213,-214.76 216.5,-224.76 220,-214.76 213,-214.76"/>
</g>
<!-- BaseDetailView -->
<g id="node8" class="node">
<title>BaseDetailView</title>
<polygon fill="none" stroke="black" points="442.5,-175 314.5,-175 314.5,-139 442.5,-139 442.5,-175"/>
<text text-anchor="middle" x="378.5" y="-153.3" font-family="Times,serif" font-size="14.00">BaseDetailView</text>
</g>
<!-- LoginRequiredMixin&#45;&gt;BaseDetailView -->
<g id="edge4" class="edge">
<title>LoginRequiredMixin&#45;&gt;BaseDetailView</title>
<path fill="none" stroke="black" d="M293.25,-214.76C293.25,-214.76 293.25,-157 293.25,-157 293.25,-157 302.21,-157 314.32,-157"/>
<polygon fill="none" stroke="black" points="289.75,-214.76 293.25,-224.76 296.75,-214.76 289.75,-214.76"/>
</g>
<!-- TemplateView -->
<g id="node2" class="node">
<title>TemplateView</title>
<polygon fill="none" stroke="black" points="117,-261 0,-261 0,-225 117,-225 117,-261"/>
<text text-anchor="middle" x="58.5" y="-239.3" font-family="Times,serif" font-size="14.00">TemplateView</text>
</g>
<!-- TemplateView&#45;&gt;BaseView -->
<g id="edge3" class="edge">
<title>TemplateView&#45;&gt;BaseView</title>
<path fill="none" stroke="black" d="M90,-214.76C90,-214.76 90,-157 90,-157 90,-157 115.53,-157 143.65,-157"/>
<polygon fill="none" stroke="black" points="86.5,-214.76 90,-224.76 93.5,-214.76 86.5,-214.76"/>
</g>
<!-- DetailView -->
<g id="node3" class="node">
<title>DetailView</title>
<polygon fill="none" stroke="black" points="553.5,-261 459.5,-261 459.5,-225 553.5,-225 553.5,-261"/>
<text text-anchor="middle" x="506.5" y="-239.3" font-family="Times,serif" font-size="14.00">DetailView</text>
</g>
<!-- DetailView&#45;&gt;BaseDetailView -->
<g id="edge6" class="edge">
<title>DetailView&#45;&gt;BaseDetailView</title>
<path fill="none" stroke="black" d="M506.5,-214.76C506.5,-214.76 506.5,-157 506.5,-157 506.5,-157 474.75,-157 442.87,-157"/>
<polygon fill="none" stroke="black" points="503,-214.76 506.5,-224.76 510,-214.76 503,-214.76"/>
</g>
<!-- GetProfileMixin -->
<g id="node4" class="node">
<title>GetProfileMixin</title>
<polygon fill="none" stroke="black" points="319.5,-244 319.5,-265 438.5,-265 438.5,-244 319.5,-244"/>
<text text-anchor="start" x="322.5" y="-250.8" font-family="Times,serif" font-size="14.00">GetProfileMixin</text>
<polygon fill="none" stroke="black" points="319.5,-221 319.5,-242 438.5,-242 438.5,-221 319.5,-221"/>
<text text-anchor="start" x="341" y="-227.8" font-family="Times,serif" font-size="14.00">get_profile</text>
<polygon fill="none" stroke="black" points="316,-218 316,-268 441,-268 441,-218 316,-218"/>
</g>
<!-- GetProfileMixin&#45;&gt;BaseView -->
<g id="edge2" class="edge">
<title>GetProfileMixin&#45;&gt;BaseView</title>
<path fill="none" stroke="black" d="M357.67,-207.68C357.67,-207.68 357.67,-178 357.67,-178 357.67,-178 323.74,-178 289.15,-178"/>
<polygon fill="none" stroke="black" points="354.17,-207.68 357.67,-217.68 361.17,-207.68 354.17,-207.68"/>
</g>
<!-- GetProfileMixin&#45;&gt;BaseDetailView -->
<g id="edge5" class="edge">
<title>GetProfileMixin&#45;&gt;BaseDetailView</title>
<path fill="none" stroke="black" d="M399.33,-207.66C399.33,-207.66 399.33,-175.07 399.33,-175.07"/>
<polygon fill="none" stroke="black" points="395.83,-207.66 399.33,-217.66 402.83,-207.66 395.83,-207.66"/>
</g>
<!-- PageView -->
<g id="node6" class="node">
<title>PageView</title>
<polygon fill="none" stroke="black" points="66.5,-71.5 66.5,-92.5 205.5,-92.5 205.5,-71.5 66.5,-71.5"/>
<text text-anchor="start" x="101" y="-78.3" font-family="Times,serif" font-size="14.00">PageView</text>
<polygon fill="none" stroke="black" points="66.5,-48.5 66.5,-69.5 205.5,-69.5 205.5,-48.5 66.5,-48.5"/>
<text text-anchor="start" x="77.5" y="-55.3" font-family="Times,serif" font-size="14.00">page_title_suffix</text>
<polygon fill="none" stroke="black" points="66.5,-25.5 66.5,-46.5 205.5,-46.5 205.5,-25.5 66.5,-25.5"/>
<text text-anchor="start" x="69.5" y="-32.3" font-family="Times,serif" font-size="14.00">get_context_data()</text>
<polygon fill="none" stroke="black" points="63,-23 63,-96 208,-96 208,-23 63,-23"/>
</g>
<!-- BaseView&#45;&gt;PageView -->
<g id="edge7" class="edge">
<title>BaseView&#45;&gt;PageView</title>
<path fill="none" stroke="black" d="M176,-121.89C176,-121.89 176,-96.29 176,-96.29"/>
<polygon fill="none" stroke="black" points="172.5,-121.89 176,-131.89 179.5,-121.89 172.5,-121.89"/>
</g>
<!-- BasePostView -->
<g id="node7" class="node">
<title>BasePostView</title>
<polygon fill="none" stroke="black" points="229.5,-67.5 229.5,-88.5 368.5,-88.5 368.5,-67.5 229.5,-67.5"/>
<text text-anchor="start" x="249" y="-74.3" font-family="Times,serif" font-size="14.00">BasePostView</text>
<polygon fill="none" stroke="black" points="229.5,-29.5 229.5,-65.5 368.5,-65.5 368.5,-29.5 229.5,-29.5"/>
<text text-anchor="start" x="232.5" y="-51.3" font-family="Times,serif" font-size="14.00">get_context_data()</text>
<text text-anchor="start" x="278" y="-36.3" font-family="Times,serif" font-size="14.00">post()</text>
<polygon fill="none" stroke="black" points="226,-27 226,-92 371,-92 371,-27 226,-27"/>
</g>
<!-- BaseView&#45;&gt;BasePostView -->
<g id="edge8" class="edge">
<title>BaseView&#45;&gt;BasePostView</title>
<path fill="none" stroke="black" d="M257.5,-121.89C257.5,-121.89 257.5,-92.25 257.5,-92.25"/>
<polygon fill="none" stroke="black" points="254,-121.89 257.5,-131.89 261,-121.89 254,-121.89"/>
</g>
</g>
</svg>
